<?xml version="1.0" encoding="utf-8"?>
<!-- Generator: Adobe Illustrator 21.1.0, SVG Export Plug-In . SVG Version: 6.00 Build 0)  -->
<svg version="1.1" id="btn_xA0_Image_1_" xmlns="http://www.w3.org/2000/svg" xmlns:xlink="http://www.w3.org/1999/xlink" x="0px"
	 y="0px" viewBox="0 0 538.9 521.5" style="enable-background:new 0 0 538.9 521.5;" xml:space="preserve">
<style type="text/css">
	.st0{fill:#FEDC33;}
</style>
<g>
	<path class="st0" d="M40,315.6c-0.6-18.1,0-36.3-1.3-54.8c-2.8,1.2-5.2,2.2-7.7,3.2c-3.8,1.5-5.9,0.1-5.4-3.9
		c0.8-6.5,1.8-13,3-19.4c4.7-25.3,12.3-49.8,22.3-73.5c0.9-2.2,2.4-4.3,3.8-6.3c1.1-1.6,1.8-3.3,2.3-5.2c2.2-7.7,4.5-15.3,6.8-22.9
		c0.4-1.3,0.4-2.3-0.5-3.3c-0.3-0.3-0.5-0.7-0.7-0.9c-0.9-0.9-1.1-1.8-0.6-3c1.6-4.2,2.9-8.5,4.8-12.5c5.4-12,12.5-23,19.8-33.9
		c0.7-1,1.5-1.4,2.6-1.1c0.4,0.1,0.8,0.1,1.2,0.2c1.6,0.6,2.7,0,3.7-1.3c5-6.6,11.1-12.2,17.2-17.7c6.8-6.1,14.4-11.1,22.3-15.7
		c11.5-6.7,23.7-11.9,36.2-16.4c3.4-1.2,6.5-3,9.9-4.3c10.4-4.1,21.1-6.9,32-9.1c9.6-1.9,19.2-3.2,28.9-4.2c2.9-0.3,5.7-0.4,8.6-0.6
		c0.9-0.1,1.7-0.3,2.3-1c1.2-1.4,2.9-1.9,4.7-2.1c1.2-0.2,2.6,0.2,3.5-1.1c0.2-0.3,0.9-0.2,1.4-0.2c2.8,0.1,5.1-0.9,7.4-2.3
		c1-0.6,2.2-0.9,3.3-1.1c2-0.4,4.1-0.5,6.2-0.8c0.9-0.1,1.9-0.3,2.9-0.4c0.9,2,1.7,3.9,2.6,6c1.6,0.1,3.1,0.2,4.7,0.2
		c6.9,0,13.7-0.3,20.6-0.1c7.3,0.3,14.4,1.6,21.5,3.4c8.2,2.1,16.3,4.5,24.5,6.7c1.4,0.4,3,0.5,4.5,0.4c6.4-0.6,12.7-1.7,19.1-0.6
		c2.9,0.5,5.7,1.6,8.5,2.4c1.1,0.3,1.4,1.1,1.2,2.2c-0.4,2.5-2.1,4.5-3.2,6.7c-0.3,0.7-0.8,1.3-1.4,2.2c2.8,1.6,5.5,3.1,8.2,4.6
		c0.9,0.5,1.5-0.1,2.1-0.6c4.8-3.7,9.3-7.8,13.1-12.6c3.7-4.6,6.8-9.5,9.4-14.7c0.2-0.4,0.4-0.8,0.8-1.5c1.6,1.8,2.8,3.6,2.1,5.9
		c-0.9,3.3-2,6.5-3.2,9.8c-0.6,1.8-1.5,3.5-2.3,5.5c0.5,0.2,0.9,0.3,1.4,0.4c13.2,2.9,23.9,10,33,19.8c8.5,9.2,14.9,19.7,20.4,30.9
		c3.9,8,7.2,16.2,10,24.6c0.7,2,1.8,3.2,3.5,4.3c3.5,2.3,6.8,4.7,10.1,7.3c1.4,1.1,2.6,2.6,3.8,3.9c1.8,2.1,2.9,4.4,2.8,7.2
		c-0.1,1,0.3,1.8,1,2.6c12.3,15,20.3,32.2,25.6,50.8c0.6,2,1.5,3.5,3,5c2.4,2.4,4.8,5,6.9,7.6c2.4,3,3.6,6.4,3.5,10.4
		c-0.2,14.3-0.1,28.6-0.1,43c0,5.2-0.1,10.4-0.3,15.6c-0.1,2.2-0.9,4.4-1.2,6.6c-1,6.6-1.9,13.3-2.8,19.9c-0.2,1.4-0.3,2.9-0.5,4.3
		c0,0.5,0,1,0.2,1.6c2-2.5,2.7-5.6,4.3-8.3c0.2,0,0.3,0.1,0.5,0.1c-0.1,2-0.1,4.1-0.4,6.1c-2.1,12.4-6.1,24.3-10.4,36.1
		c-3.7,10.1-8.1,19.8-12.9,29.4c-4.5,8.9-9.3,17.7-14.6,26.2c-5.5,8.8-11.2,17.5-17.3,25.9c-5.9,8.2-12.6,15.7-19.4,23.1
		c-9.4,10.2-19.3,19.9-29.8,28.8c-6.7,5.7-13.8,10.9-20.9,16.1c-7.8,5.8-16.1,10.7-24.8,15c-8.6,4.2-17.3,8.3-26,12.3
		c-8.9,4.1-18.2,7.5-27.5,10.5c-3.4,1-6.7,2.4-10.1,3c-6.7,1.3-13.5,2.7-20.3,3.4c-9.9,1-19.9,1.6-29.9,2
		c-12.5,0.5-24.9-0.3-37.4-1.1c-17.4-1.2-33.8-6-49.6-13.1c-17.9-8-34-19-48.6-32.1c-11.9-10.7-22.2-22.8-31.7-35.6
		c-5.4-7.3-10-15.3-14.8-22.9c-1.4-2.2-2.5-4.4-3.8-6.7c-0.7-1.2-1.2-2.4-2.4-3.2c-0.6-0.4-0.8-1.3-1.1-2
		c-2.4-6.2-5.5-12.1-9.6-17.3c-3.6-4.6-7.4-9.2-12.2-12.8c-1.1-0.9-1.5-1.8-1.7-3.2c-0.8-4.6-1.9-9.2-2.9-13.8
		c-0.1-0.7-0.6-1.3-1-1.9c-1.7-2.4-2.5-5.1-3.3-7.9c-2-7.4-3.1-15-3.8-22.7c-0.3-2.6-1-4.5-3.5-5.6C44.7,318.3,42.5,317,40,315.6z
		 M470.8,137.4c-1.1-3.8-2.1-7.5-5.2-10.3c-5.4-5-11-9.8-16.9-14.1c-17.1-12.4-35.8-21.9-55.3-30.1c-0.7-0.3-1.5-0.5-2.3-0.6
		c-4.5-0.9-9.1-1.7-13.6-2.6c-0.6-0.1-1.2-0.2-1.9-0.3c-0.3,0.8-0.5,1.4-0.7,2.1c0.6,0.3,1.1,0.6,1.6,0.9c7.9,4,15.8,8.1,23.7,12.1
		c0.7,0.4,1.6,0.7,1.9,1.3c0.9,1.6,1.5,3.4,2.4,5.4c-3,0.4-5.5,0.7-8.1,1.1c0.6,1.5,0.6,1.5,2.2,2.4c6.7,3.7,11.7,8.8,14.1,16.3
		c0.3,0.8,0.7,1.6,1,2.5c0.2,0.6,0.3,1.2,0.6,1.9c-2.5,0-4.7-0.1-6.9,0c-1.4,0-2.6-0.4-3.8-1.2c-9.7-6.3-19.4-12.7-29.3-18.8
		c-9.7-6-19.7-11.5-29.6-17.3c-1-0.6-1.9-1-3.1-0.9c-2.7,0.3-5.4,0.5-8.1,0.6c-7.3,0.4-14.5,0.8-21.8,1.1c-1.2,0.1-2.6-0.1-3.8-0.5
		c-6.8-2.1-13.6-3.3-20.7-3.6c-2.1-0.1-4.3-0.5-6.4-1c-4.6-1.2-9.3-2.5-13.9-3.7c-0.6-0.2-1.2-0.3-1.9-0.4c-0.3,1-0.5,1.8-0.8,2.6
		c-0.8,2.2-0.8,2.2-3,2.2c-16.5-0.4-31.3,4.4-44.7,14c-1.2,0.8-2.4,1.7-3.6,2.4c-4.4,2.7-8.5,5.7-12.3,9.2c-0.7,0.7-1.7,1.2-2.6,1.6
		c-0.8,0.3-1.3,0.8-1.7,1.6c-0.8,1.8-1.7,3.6-2.7,5.4c-5.1,9.7-12.2,18-19.5,26.1c-9.3,10.3-19.4,19.7-29.6,29.1
		c-1,0.9-1.9,2-2.5,3.2c-3,5.6-5.8,11.2-8,17.2c-3.8,10-6.2,20.3-6.9,31c-0.7,11.1,0.3,22,3.5,32.7c0.4,1.4,0.4,2.8,0.1,4.2
		c-3.8,18.1-1.4,35.3,7.4,51.6c0.7,1.2,1.2,2.7,1.4,4c1.2,7.1,3.3,14,6.6,20.5c0.9,1.8,1.2,3.4,0.3,5.2c-0.2,0.4-0.2,0.8-0.4,1.1
		c-0.4,1-0.2,1.8,0.5,2.6c4.1,5.9,8.1,11.9,12.3,17.8c0.9,1.3,2.2,2.5,3.4,3.7c1.1,1,2.4,1.8,3.6,2.8c-0.8,1.7,0,2.8,0.9,4
		c2,2.6,3.8,5.3,5.7,8c0.7,1,1.4,2,2.2,2.8c9.9,9.6,20.3,18.6,32.2,25.6c7.1,4.2,14.5,7.5,22.7,8.6c2.4,0.4,5,0.3,7.4,0.9
		c8.7,2.3,17.5,4,26.4,4.5c6.6,0.4,13.1,0.6,19.5-1.6c3.5-1.2,7.2-2.1,10.8-3.3c13-4.6,26-9.3,39.1-13.9c1.2-0.4,2.4-0.9,3.6-1.1
		c7.7-1.1,15.2-3.2,22.3-6.4c4.6-2.1,8.8-4.8,11.7-9.2c0.9-1.4,2-2.5,3.5-3.1c0.6-0.3,1.1-0.9,1.6-1.3c0.9-0.9,1.8-1.8,2.7-2.7
		c2.6-2.4,5.3-4.6,7.8-7.1c9.9-10.1,16.9-22,23-34.6c0.8-1.7,1.8-3.1,3.3-4.3c9.4-7.7,16.5-17.1,21.2-28.3c1.1-2.6,1.6-5.4,3-7.8
		c1.4-2.4,3.7-4.4,5.5-6.6c1.1-1.4,2.4-2.9,3-4.6c4.4-11.7,7.8-23.7,8.9-36.2c0.5-6,0.7-12-0.8-17.9c-0.7-2.8-0.5-5.4,0.7-7.9
		c1.2-2.7,2.6-5.4,4.4-7.7c2.6-3.3,5.5-6.4,8.5-9.4c1.2-1.2,1.9-2.4,2.3-4c1.6-6.1,1.4-12.2,0.3-18.3c-1.2-6.2-3.7-11.9-6.3-17.6
		c-5.5-12.4-12-24.2-18.8-35.9c-0.4-0.7-0.9-1.5-1-2.4c-0.2-1.8-0.2-3.6-0.3-5.6c3.1-0.3,6.2-0.6,9.2,1.2c4.9,2.9,9.8,5.7,14.7,8.6
		C467.7,137.5,468.9,138.2,470.8,137.4z M423.8,69.6c0.9-1.8-0.2-3.1-1.5-4.3c-0.4-0.4-0.8-0.8-1.1-1.2c-0.7-0.8-1.4-1.1-2.5-1
		c-6.8,0.6-13.4-0.1-19.9-2c-2.8-0.8-5.2,0-7.6,1.2c-1.3,0.6-1.9,1.9-1.8,3.4c0,1.4,1.1,1.8,2.1,2.2c5.2,2.2,10.4,4.5,15.7,6.6
		c5.6,2.2,11.2,4.1,17.2,5.2c1.6,0.3,3.2,0.7,4.9,0.3c0-3.2-0.4-2.9,2.4-4.9C429,73.2,426.5,71.5,423.8,69.6z M163.5,138.5
		c0.4,1.2,0.7,2.1,1,2.9c3.1-0.2,3.6-0.7,3.4-2.9C166.5,138.5,165.2,138.5,163.5,138.5z"/>
	<path class="st0" d="M5.8,343.6c-0.1,4.8-1.3,6-5.6,5.3c-0.4-1.4-0.2-2.9,0.1-4.4c0.1-0.6,1-1.2,1.7-1.4
		C3.3,342.8,4.6,343.2,5.8,343.6z"/>
	<path class="st0" d="M252,358.8c0-13.9,0-27.5,0-41.1c-2.8,1.1-6.6,5-9.4,9.4c-2.4,3.7-3.9,7.8-5.1,12.1c-0.2,0-0.3,0-0.5,0
		c-0.1-0.6-0.3-1.3-0.2-1.9c0.1-14.1,2.3-27.7,8-40.7c1-2.2,1.2-4.3,0.4-6.5c-0.4-1.1-0.1-2,0.3-3c2-4.6,3.9-9.3,5.7-14
		c0.6-1.5,0.8-3.3,0.8-4.9c0-30.2,0.1-60.3,0-90.5c0-13.9,1.5-27.6,4.3-41.2c0.3-1.3,0.8-1.9,2.1-2.2c1.1-0.2,1.5,0.2,1.7,1.1
		c0.1,0.3,0.1,0.6,0.1,1c0.4,4.2,0.9,8.4,0.5,12.6c-0.2,2.2,0.5,4.5,0.9,7.3c2.1-2.4,3.8-4.4,5.9-6.8c0.7,2.6,1.3,4.8,1.9,6.9
		c0.7,2.5,1.2,3.2,3.7,2.3c2.9-1,5.2-0.1,7.5,1.1c2.4,1.3,4.8,2.6,7.1,4c2.4,1.5,4,3.7,4.6,6.5c0.5,2.2,1.7,3.8,3.5,5.3
		c28,23.7,56,47.5,84,71.3c0.6,0.5,1.2,1.1,1.8,1.6C380.8,250.1,255,357,252,358.8z"/>
	<path class="st0" d="M283.6,134.8c1,3.3,0.7,6.3-1.7,8.8c-0.6,0.6-1.3,1.2-2.1,1.4c-2.9,1-4.2,0.2-4.5-2.9c-0.1-1.3-0.2-2.7-0.1-4
		c0.1-1.7,1-3,2.4-3.9c1-0.6,2-0.9,3.2-0.3C281.7,134.3,282.6,134.5,283.6,134.8z"/>
	<path class="st0" d="M267,124.5c-0.9,0.2-1.8,0.5-2.6,0.5c-1.3,0-2-0.7-2.1-2.1c0-1,0-2.1,0-3.3c1-0.3,1.9-0.7,2.8-0.9
		c1.6-0.4,2-0.1,2.1,1.6C267.2,121.6,267,122.9,267,124.5z"/>
	<path class="st0" d="M233.4,376.2c0.3-1.3-0.2-3.1,2.1-3.5c0.3,0.8,0.6,1.5,1,2.3c-1,0.6-1.8,1.1-2.7,1.6
		C233.7,376.5,233.5,376.4,233.4,376.2z"/>
	<path class="st0" d="M224.9,401.5c1.3-0.7,2.7-1.5,4-2.2c-0.7,1.8-2.1,2.3-3.7,2.6C225.1,401.8,225,401.6,224.9,401.5z"/>
</g>
</svg>
