<?xml version="1.0" encoding="utf-8"?>
<!-- Generator: Adobe Illustrator 25.2.1, SVG Export Plug-In . SVG Version: 6.00 Build 0)  -->
<svg version="1.1" id="Laag_2_xA0_Image_1_" xmlns="http://www.w3.org/2000/svg" xmlns:xlink="http://www.w3.org/1999/xlink"
	 x="0px" y="0px" width="720px" height="720px" viewBox="0 0 720 720" style="enable-background:new 0 0 720 720;"
	 xml:space="preserve">
<style type="text/css">
	.st0{fill:#FFFFFF;}
</style>
<g>
	<path d="M159.4,430c0.9-1.6,2.3-2.5,3.9-3.3c2.3-1.2,4.6-2.4,6.8-3.7c1.9-1.1,3.8-2.3,5.7-3.2c5.8-2.6,10.8-6.5,15.7-10.5
		c7.1-5.9,14.3-11.9,21.5-17.7c7.9-6.3,16.7-11.1,26.4-14.1c9-2.8,17.9-6,26.8-9c1.9-0.6,3.1-2.1,3.8-3.9c0.6-1.4,1-2.8,1.8-4.1
		c4.3-7.7,12.7-9.3,19.3-7.1c5.2,1.7,10.9,0.5,14-3.5c7.3-9.2,16.8-14.7,28-17.6c10.5-2.8,21.1-3.7,32-2.2c4.9,0.7,9.8,1.1,14.8,1.7
		c2,0.2,3.7,1.2,5,2.8c0.2,0.3,0.4,0.7,0.5,1.1c0.2,0.7,0.3,1.4,0.4,2.1c0.4,3.2,2.3,5,5.3,6c2.3,0.8,4.6,1.6,6.9,2.4
		c0.3,0.1,0.5,0.2,0.8,0.2c1.8,0.3,2.4-0.1,2.4-1.9c0-3-0.2-5.9-0.4-8.8c-0.3-4.1-0.6-8.3-1.3-12.4c-0.6-4-1.6-8-2.4-12
		c-0.4-2-1.2-4-1.2-6c-0.1-4.7-2.3-8.8-3.5-13.2c-1.1-4.4-2.3-8.8-3.7-13.1c-2.2-6.8-4.6-13.6-7.1-20.3c-0.7-1.9-1.8-3.6-2.8-5.4
		c-1.9-3.7-3.9-7.4-5.8-11.2c-0.3-0.6-0.5-1.2-0.7-1.9c-0.1-0.6-0.1-1.2-0.2-1.8c-0.1-0.9-0.5-1.4-1.5-1.4c-0.9,0-1.3,0.6-1.4,1.3
		c-0.2,2.1-1.2,3.9-2.3,5.6c-0.7,1-1.8,1.9-2.8,2.4c-1.6,0.8-3.3,0.3-4.4-1.2c-2.3-3-4.8-5.8-5.7-9.6c-0.7-2.7-3-3.3-5-1.2
		c-2.3,2.3-5,4.2-7.7,5.9c-1.8,1.1-3.6,2.3-5.3,3.5c-2,1.4-4.2,2.1-6.7,1.6c-1.1-0.2-2.3-0.3-3.4-0.6c-0.9-0.3-1.9-0.7-2.7-1.2
		c-2.1-1.5-2.3-3.7-0.3-5.3c3-2.5,5-5.8,7.3-8.8c0.2-0.3,0.4-0.7,0.6-1c0.6-1,0.9-2,0.2-3c-0.7-1.1-1.8-1.1-2.9-1
		c-0.4,0-0.7,0.1-1.1,0.1c-2.2,0.4-4-0.1-5.9-1.5c-4.6-3.3-9.9-4.5-15.5-5s-11.3-0.6-16.6-2.6c-8.4-3.2-16.4-7.4-23.6-12.9
		c-15.3-11.7-24.6-27.2-29.2-45.8c-5-20.1-1.7-39.1,8.3-57c6.1-11,14-20.4,24.5-27.5c9.6-6.5,20.3-10.5,31.7-12.3
		c3.3-0.5,6.7-0.7,10-1.1c0.4,0,0.7-0.1,1.1-0.2c2,0,4,0,6,0c2.3,0.2,4.5,0.4,6.8,0.7c9.2,0.9,17.9,3.8,26.1,7.8
		c21.8,10.6,35,28.3,41.5,51.3c2.7,9.8,3.7,19.7,2.4,29.8c-1,8.3-3.6,16.1-6.7,23.8c-0.9,2.1-1.7,4.1-3.2,5.9
		c-0.4,0.5-0.8,1.5-0.6,1.9c0.3,0.5,1.3,0.7,2,0.8c1,0.2,2.1,0.2,3.1,0.4c1,0.3,1.2,1.2,1.1,2c-0.2,1-0.4,2-0.8,2.9
		c-1.4,2.9-2.8,5.7-4.2,8.6c-0.6,1.1-1.1,2.3-1.5,3.5c-0.4,1.3-0.1,2,1.4,2.2c3.2,0.5,6.4,0.5,9.6-0.5c0.7-0.2,1.4-0.5,2.1-0.4
		s1.5,0.6,2.1,1.2c0.6,0.7,0.3,1.5-0.2,2.2c-4.1,5.5-8.8,10.3-15.3,12.9c-2.8,1.1-3.2,2.2-2.4,5.1c0.3,1.2,0.8,2.4,1.3,3.5
		c4.3,9.4,9.4,18.3,14.7,27.1c0.7,1.1,1.1,2.5,1.6,3.7c2.7,6.7,5.5,13.5,8,20.3c2.6,6.9,4,14.2,5.3,21.5c1.1,5.9,2.4,11.7,3.5,17.6
		c0.8,4.1,1.5,8.3,2,12.4c1.3,10.2,2.5,20.5,3.8,30.7c0.3,2.6,0.5,5.3,0.8,7.9c0.1,0.9,0.3,1.9,0.5,2.8c0.2,0.8,0.7,1.2,1.5,1.1
		c1.5-0.2,2.9,0.2,4.3,0.7c2.6,0.9,4.4,0.2,6-2.2c3.1-4.5,4.5-9.4,4-14.8c-0.2-2.8,0-5.6-0.1-8.4c0-0.5-0.4-1-0.7-1.4
		c-0.8-1-1.8-2-2.4-3.1c-1.4-2.4-0.9-4.6,1.5-5.8c2.5-1.3,5.2-2.1,7.9-3.1c1.3-0.5,2.7-0.7,4-1.3c3.9-1.8,5.6-5.4,4.2-9.4
		c-1.6-4.3-3.8-8.3-7.1-11.6c-1.2-1.1-2.7-2-4.2-2.8c-2.1-1.1-2.9-2.2-2.8-4.4c0.1-2.2,1.1-3.7,3.1-4.4c3.1-1,6.3-1.3,9.5-0.9
		c6,0.8,10.5,4,14.3,8.5c2.6,3.2,3.4,3.4,7.1,1.6c5-2.4,10.2-4.4,15.8-5.1c3.9-0.5,7.7-0.4,11.3,1.1c7.7,3.2,15.8,3.8,24,3.5
		c3.2-0.1,6.4-0.2,9.6,0c7.1,0.6,13.1,3.8,18.2,8.5c2.1,1.9,3.9,4,5.8,6.1c1.9,2.2,2.6,5,3,7.8c1,6.3,0.8,12.5-1.1,18.6
		c-0.5,1.8-1.5,3.5-2.6,4.9c-1.3,1.8-3.1,1.8-4.8,0.4c-1-0.8-1.8-1.7-2.7-2.6c-5.4-5.1-11.9-6.7-19-5.6c-4.5,0.7-7.1,4.8-6.5,9.3
		c0.2,1.5,0.5,3,0.6,4.5c0.1,3.5-1.7,5.3-5.2,5.1c-2.4-0.2-4.7-0.8-7.1-1.2c-2-0.4-3.9-0.9-5.9-1.2c-2.7-0.4-3.8,0.5-3.7,3.2
		c0,1.6,0.2,3.2,0.3,4.8c0.9,12.7-2.3,24-11.7,33.1c-1.4,1.4-2.9,2.7-4.4,4.1c-0.4,0.4-0.7,0.8-1.3,1.5c1,0.2,1.6,0.4,2.3,0.5
		c3.9,0.3,5.6,2.1,5.7,5.9c0,1.2-0.1,2.5-0.1,3.7c0,1.3,0.4,1.8,1.6,1.9c1.8,0.1,3.6,0.2,5.4,0.3c0.6,0,1.2-0.3,1.7-0.6
		c1-0.5,1.3-1.4,0.8-2.4c-0.4-0.8-0.9-1.6-1.4-2.4c-1.2-2.1-1.5-4.5,1.1-6.3c2.3-1.6,3.5-4.1,4.4-6.7c0.4-1.1,0.7-2.3,1.2-3.4
		c1-2.6,3-3.9,5.7-4c5.3-0.1,10.4,1.3,15.2,3.5c6.3,2.8,11.8,7,17,11.6c2.2,2,2.7,4.7,3,7.5c0.7,6.9-0.4,13.5-3.7,19.7
		c-1.6,3.1-2.1,6.5-2.6,9.9c-0.9,6.4-3.2,12.4-5.5,18.3c-0.9,2.3-1.8,4.6-2.8,6.9c-1.5,3.6-3.9,6.2-7.8,7.3
		c-2.7,0.8-4.3,2.7-5.2,5.3c-1.3,3.5-2.5,7-3.7,10.5c-9.4,26.5-18.9,53-28.3,79.6c-1,2.9-1.9,5.8-3,8.6c-2,4.8-4.9,9.1-9.9,11
		c-8.1,3-16.2,6.4-24.7,8.3c-2.8,0.6-5.6,1.1-8.4,1.1c-6.2,0.1-12.3,0-18.5-0.2c-7.1-0.1-13.9-1.4-20.8-3.3
		c-7.1-2-14.5-3.4-21.7-5.2c-6.4-1.6-12.4-4.1-17.9-7.9c-5.9-4.1-9.8-9.4-11.7-16.5c-5-18.8-10.2-37.4-15.3-56.2
		c-0.8-3-1.6-6.1-2.3-9.2c-0.4-2-1.4-3.7-2.7-5.2c-0.7,0.5-1.4,0.8-1.9,1.4c-0.6,0.6-1.1,1.4-1.4,2.1c-1.1,2.9-2.4,5.6-4.8,7.6
		c-2.1,1.8-4.5,2-6.9,0.8c-2.4-1.1-4.3-2.8-5.7-5c-3.2-5-7.6-8.3-12.9-10.8c-1.9-0.9-3.2-2.3-4.3-3.9c-2.9-4.4-4.6-9.2-5.4-14.4
		c-1.1-6.9-1.5-13.8-0.1-20.8c0.6-3.3,1.7-6.4,3.4-9.3c2.5-4.4,5-8.8,7.7-13.1c1.8-3,4.4-5.4,7.4-7.3c2.1-1.3,2.8-3.3,2.5-5.6
		c-0.4-3.5-1.1-6.9-1.6-10.4c-0.4-3.4-0.6-6.8-0.9-10.3c-0.1-0.8-0.1-1.7-0.3-2.5c-0.3-1.2-1.1-1.6-2.3-1.1
		c-0.4,0.2-0.9,0.4-1.2,0.7c-3.2,2.2-6.5,4.4-9.7,6.7c-2,1.4-4,2.8-5.8,4.5c-2.9,2.6-6.2,3.8-10.1,3.6c-3.9-0.2-7.8-0.3-11.6-0.7
		c-2.6-0.3-5.1-1-7.6-1.5c-1.3-0.3-2.5-0.7-3.8-0.8c-2.2-0.2-3.8,0.8-4.8,2.7c-0.5,1-0.9,2-1.2,3.1c-0.5,2.2-1.7,3.9-3.4,5.3
		c-0.9,0.7-1.8,1.4-2.7,2c-3.6,2.5-7.2,5-10.8,7.6c-5.2,3.7-10.7,6.8-17,7.9c-2.8,0.5-5.7,0.3-8.5,0.4c-5.2,0.2-10.3,0.7-15.5,0.6
		c-10.1-0.1-19.8-2.5-29.3-5.8c-1-0.3-1.7-1.2-2.6-1.8C159.4,430.8,159.4,430.4,159.4,430z M333.3,461.5c0.2,1.4,0.4,2.5,0.6,3.5
		c0.3,1.6,1.2,2.8,2.6,3.5c2.9,1.3,3.9,3.7,3.8,6.6c0,2.7,0.1,5.4-1.4,8c-1.2,2-1.7,4.4-2.4,6.6c-0.2,0.6-0.2,1.4,0.1,1.9
		c1.3,2.9,2,6,2.6,9.2c0.7,3.8,1.4,7.6,2.3,11.3c1.2,4.8,2.8,9.5,4.1,14.3c2.5,10,4.8,20,8,29.8c1,2.9,1.4,6.1,2.5,9
		c1.2,3.2,2.8,6.3,4.2,9.5c1,2.1,2.4,3.9,4.4,5.1c3.6,2.1,7.4,4.1,11.1,6c4.7,2.4,9.3,2.4,14.3,0.5c8.8-3.2,16.8-7.4,23.2-14.5
		c2.7-3,5.8-5.7,8.7-8.6c1.9-1.9,2.4-4.4,1.3-6.8c-0.7-1.8-1.8-2.4-3.7-2c-1.6,0.4-3.3,0.8-4.9,1.2c-2.5,0.6-3.5,0-4.2-2.5
		c-0.6-2.2-1.5-4.2-2.9-6c-1-1.2-2.2-2.3-3.3-3.4c-3.1-3.2-3.1-7,0.2-9.7c1-0.9,2.4-1.5,3.7-1.9c3.5-1.1,3.6-1.3,2.8-4.8
		c-0.8-3.5-2.5-6-6.2-7.3c-4.7-1.7-7.6-5.2-8.5-10.2c-0.7-4.1-2.4-7.7-5.6-10.4c-0.9-0.8-1.7-1.6-2.5-2.5c-2.4-2.5-4.4-5.2-5.8-8.5
		c-0.5-1.1-1-2.1-1.5-3.1c-1-1.8-0.7-2.7,1.2-3.5c1.2-0.5,2.3-0.3,3.2,0.5c0.9,0.8,1.7,1.6,2.4,2.5c1.7,2.4,3.2,5,4.8,7.4
		c2.4,3.6,5.8,5,10.1,3.9c1.2-0.3,2.2-0.1,3.2,0.4c1.3,0.5,2.6,1.1,3.9,1.4c2.7,0.6,5.2-0.5,7.6-1.3c6.8-2.4,13-5.9,19.4-9.3
		c1-0.5,2-1.3,2.8-2.2c1.4-1.6,2.4-3.5,2.1-5.7c-0.1-0.7-0.8-1.3-1.2-1.9c-0.5,0.5-0.9,1-1.4,1.4c-0.1,0.1-0.1,0.2-0.2,0.3
		c-0.4,1-1.1,1.4-2.3,1.4c-2.7,0-5.4,0-8,0.2c-2.3,0.2-4.6,0.8-6.9,0.9c-7.5,0.5-14.9-0.5-22.2-2c-9.5-2-19-4.1-28.5-6.4
		c-11.3-2.6-22.5-5.7-33.3-10.1C336.3,462.8,334.9,462.2,333.3,461.5z M276.9,364.8c0.6-0.1,1-0.3,1.4-0.3s0.9,0,1.3,0.2
		c1.6,0.4,1.8,1.2,0.6,2.4c-0.6,0.6-1.2,1.1-1.9,1.6c-2.3,1.7-4.6,3.2-7.5,3.9c-2.6,0.6-5.2,1-7.6,1.9c-7,2.5-14,5.2-21,7.8
		c-4.5,1.7-9.1,3.5-13.5,5.4c-4.8,2.1-9,5.3-12.9,8.7c-4.7,4.1-9.6,7.9-14.4,11.9c-4.1,3.5-8.5,6.5-13.1,9.2
		c-5.2,3-10.5,5.7-15.8,8.6c-2.3,1.2-4.6,2.3-6.9,3.5c-0.3,0.1-0.4,0.5-0.6,0.8c0.3,0.2,0.5,0.5,0.8,0.5c7.3,1.9,14.8,3.3,22.3,3.6
		c6.2,0.3,12.3,0.4,18.4-0.2c7.1-0.8,13.7-3.2,19.5-7.3c3.9-2.8,7.6-6,11.3-9.1c3.6-2.9,6.6-6.4,8.6-10.6c0.8-1.6,2.1-2.7,3.8-3
		c1.6-0.2,3.2-0.4,4.7-0.1c3,0.6,6,1.6,9,2.4c8,2.1,15.7,1.6,22.8-2.9c3.8-2.4,7.5-5.1,11.3-7.6c5-3.3,10.4-5.7,16.3-6.4
		c6-0.7,11.8,0.4,17.4,2.8c2.8,1.3,5.8,2.1,8.8,2.4c3.8,0.3,7.6,0.5,11.5,0.6c1.8,0,3.6-0.2,5.4-0.4c0.9-0.1,1.7,0.1,1.9,0.9
		c0.2,0.8,0.2,1.8-0.1,2.5c-0.4,0.9-1.3,1.6-2,2.4c-0.6,0.6-1.1,1.4-0.6,2.1c0.5,0.6,1.4,1.1,2.1,1.2c0.8,0.1,1.7-0.2,2.5-0.5
		c3.1-1.3,6-3.1,9.5-3.3c0.6,0,1-0.6,0.6-1.2c-1.4-2.1-2.6-4.4-4.2-6.4c-3-3.7-7.1-6.1-11.3-8.3c-12.3-6.4-24.8-11.9-38.9-12.7
		c-5.8-0.4-11.6,0-17.3,1.2c-2.6,0.6-5,1.6-7.5,2.3c-1.3,0.4-2.3-0.1-2.8-1.4s-0.2-2.4,1.2-2.9c4.3-1.6,8.7-3,13.4-3.2
		c1.5-0.1,3,0.2,4.5,0.2c1.3,0,2.6-0.2,3.5-1.2c-3.6-3.2-8.1-4.6-12.5-6c-3.3-1-6.8-1.5-10.3-2.1c-3-0.5-5.9-0.4-8.5,1.5
		C279,361.5,277.6,362.7,276.9,364.8z M493.3,494.7c-0.1,1.2,0.1,1.5,1,1.9c0.6,0.3,1.2,0.5,1.8,0.7c1.5,0.8,2,1.8,1.7,3.4
		c-0.2,1-0.5,2.1-1,3c-1.3,2.4-2.7,4.7-4,7.1c-1.3,2.3-2.4,4.7-3.7,7c-2.1,3.6-4.2,7.3-6.5,10.8c-1.2,1.9-2.9,3.4-4.3,5.2
		c-2.5,3.1-5.2,5.9-6.9,9.6c-0.9,2.1-2.8,3.8-5.4,4.3c-2.8,0.5-5.6,1.2-8.4,1.9c-0.9,0.2-1.8,0.8-2.4,1.5c-1.2,1.3-2.2,2.8-3.3,4.3
		c-3.4,4.3-6.6,8.8-10.2,12.8c-4.7,5.2-9.8,9.9-15.4,14.3c-5.8,4.6-12.2,8.1-19.6,9.5c-0.9,0.2-1.8,0.5-2.8,0.8c0,0.1,0,0.3,0,0.4
		c1,0.5,2,1.2,3,1.6c4.3,1.9,8.9,2.2,13.6,2.3c2.9,0.1,5.8,0.2,8.7,0.3c1.3,0.1,2.5,0.3,3.8,0.2c2.9-0.1,5.8-0.2,8.7-0.5
		c4.2-0.4,8.4-0.7,12.4-1.6c8.2-1.7,15.7-5.5,23-9.5c0.8-0.4,1.6-1,2.1-1.7c1.3-1.9,2.6-3.8,3.6-5.9c1.4-3.1,2.6-6.4,3.8-9.7
		c1.6-4.2,3.4-8.4,4.9-12.7c6.4-18.4,12.7-36.9,19.2-55.3c1.6-4.5,1.6-9,1.2-13.6c-0.1-1.1-0.9-1.8-1.8-1.4
		c-1.6,0.8-3.2,0.6-4.8,0.8c-1.6,0.2-3.3,0.7-4.9,1.1c-2.5,0.6-2.5,0.6-2.4,3.2c0.1,2.1-0.6,3.1-2.7,3.5
		C494.7,494.4,494,494.5,493.3,494.7z M314,62.2c-42.1,0.1-74.8,33.6-75.9,73.7c-1.2,43.9,33.6,76.7,72.7,78.1
		c44.5,1.6,79.2-33.9,79.2-75.8C389.8,95.9,355.8,62.2,314,62.2z M417.1,473.4c0,0.1,0,0.2,0,0.3c9.4-0.5,18.7-0.9,28.1-1.5
		c5.6-0.3,10.4-2.4,14.7-6c2.8-2.4,4.9-5.6,2.7-10.3c-1-2.2-2.1-4.3-3.3-6.5c-3.3-6.4-7.5-12.2-11.7-17.9c-0.7-0.9-1.4-1.9-1.9-2.9
		c-0.9-2.2-1.7-2.7-3.9-1.9c-3.6,1.4-7.2,2.8-10.8,4.1c-5.6,2.1-9.8,5.4-12.7,10.8c-2.4,4.5-5.4,8.8-8.2,13.1
		c-2.2,3.3-5.3,3.5-8.1,0.9c-0.8-0.7-1.4-1.6-2.1-2.3c-1.9-2-3.8-3.9-5.8-5.8c-1.3-1.2-2.6-2.4-4-3.4c-2.7-1.8-5-4-7.9-5.4
		c-1.9-0.9-3.7-2-5.5-3.2c-2.3-1.5-4.5-1.3-6.8-0.1c-0.9,0.5-1.3,1.2-1.2,2.1c0.4,4.1,1.2,8,2.6,11.8c1.6,4.1,2.9,8.3,4.4,12.5
		c0.6,1.6,1,3.2,1.8,4.6c1.5,2.6,3.7,4.8,6.7,5.1c6,0.7,12,1.3,18,1.6C407.2,473.6,412.2,473.4,417.1,473.4z M393.2,400.6
		c-3.1,0.4-6.1,0.8-9,1.3c-4.3,0.8-8.6,1.5-12.8,2.7c-11.1,3.1-19.6,9.7-25.2,19.9c-2.7,5-4,10.5-5.2,15.9c-0.6,2.5-0.3,4.7,1.7,6.4
		c0.7,0.6,1.9,1.4,2.7,1.1c0.7-0.2,1.3-1.5,1.5-2.5c0.5-2.5,1.2-5,2.7-7.1c2.6-3.8,5.6-7.2,9.3-10c3.5-2.6,7.5-4.3,11.9-4.3
		c3.4,0,6.8,0.5,10,1.7c4.4,1.7,8.7,3.6,13,5.5c3.3,1.5,6.5,1.6,9.6-0.3c4.2-2.7,8.1-6,11-10.2c2.1-3,4-6.3,6.1-9.3
		c2.6-3.8,6.2-6.4,10.8-6.6c7.6-0.4,15.3-0.5,22.9-0.8c5-0.2,10-0.3,15-0.5c1.7-0.1,3.3-0.6,4.9-0.9c0.9-0.2,1.4-0.8,1.3-1.7
		c-0.1-0.9-0.9-0.9-1.7-1c-1.5-0.1-3-0.1-4.4-0.3c-5.2-0.7-10.1-2.4-14.8-4.4c-8.4-3.5-17.2-5.1-26.3-4.2
		c-6.9,0.7-13.4,2.7-19.7,5.6c-2.3,1.1-4.5,2.4-6,4.5c-3.6,4.9-6.3,10.1-5.6,16.4c0.2,1.4-0.8,2.3-2.2,2.1c-2.4-0.4-4.1-1.5-3.4-4.3
		c0.1-0.3,0.1-0.5,0.2-0.8C391.9,410,392.5,405.4,393.2,400.6z M294.1,470.3c0.2,2.4,0.3,4.9,0.7,7.3c0.9,6.5,3.9,11.9,8.9,16
		c1.8,1.5,3.7,2.7,5.6,4c3,2.1,5.7,4.5,7.3,7.9c0.3,0.7,1.2,1.3,2,1.5c1.6,0.6,3.1-0.4,4.1-2.4c4-7.9,7.9-15.7,11.9-23.6
		c0.4-0.9,0.8-1.7,1.1-2.6c0.4-1.4,0.1-2.3-1-2.8c-2.8-1.2-4.4-3.4-5.6-6.1c-0.8-1.9-1.8-3.7-2.7-5.6c-3-6.3-2.8-12.4,1.5-18
		c1.7-2.1,4-3.8,6-5.6c3.9-3.5,6.5-7.5,6-12.9c-0.1-0.9,0.1-1.7,0.2-2.6c0.1-1.1-0.3-1.7-1.4-1.5c-0.9,0.2-1.8,0.5-2.6,1
		c-2.6,1.7-5.2,3.4-7.8,5.2c-5.6,4-10.6,8.4-14.5,14.1c-3,4.4-4.9,9.2-6.1,14.3c-0.3,1.4-1.1,2-2.1,1.7c-1.2-0.3-1.8-1.3-1.6-2.7
		c0.3-1.7,0.6-3.4,1.1-5.1c2-7.7,5.7-14.4,11.9-19.5c5-4.2,10.3-8.1,15.5-12c0.5-0.4,1.3-0.5,1.9-0.7s1.4-0.2,1.9-0.6
		c0.4-0.3,0.6-1.1,0.6-1.6c0-0.3-0.8-0.7-1.2-0.8c-1.2-0.1-2,0.5-2.8,1.4c-0.3,0.4-0.9,0.7-1.4,0.8c-5.5,1-10.5,3.2-14.4,7.3
		c-3.9,4.2-7.8,8.4-11.6,12.8c-3.5,4-6.4,8.5-8.4,13.4C294.7,458,294.3,464.1,294.1,470.3z M465.4,387.6c0.3,1.9,0.4,3.4,0.7,4.9
		c0.2,1.4,1,2.1,2.4,2.5c5.5,1.3,11.1,2.1,16.8,2.1c0.8,0,1.8-0.4,2.5-0.9c3.2-2.7,5.4-6.2,7.2-9.9c0.5-1,0.8-2.1,0.9-3.2
		c0.2-2.7,0.2-5.4,0.2-8c0-1.7,0-3.4,0.1-5.2c0.4-4.7-0.8-8.7-4.3-12c-0.5-0.5-1-1.2-1.2-1.9c-1.4-4.3-2.6-8.7-4-13
		c-2.4-7.6-6.3-14.2-13-18.9c-2.6-1.9-5.1-4-7-6.6c-3.7-5.1-7.9-9.7-12.5-14c-1.5-1.4-3.3-2.2-5.5-1.6c-0.3,0.1-0.7,0.4-0.8,0.8
		c-0.1,0.2,0.3,0.7,0.5,0.8c2.1,1.1,3.1,3,4.1,5c0.7,1.4,1.3,2.8,2.2,4c2.2,2.9,4.2,6,5.5,9.4c2.2,5.7,4.2,11.5,6.2,17.3
		c0.5,1.3,0.7,2.8,0.8,4.2c0.5,7.2,0.8,14.3,1.3,21.5c0.4,6.5,0,12.8-2.2,19C465.9,385.1,465.7,386.5,465.4,387.6z M368.3,336.2
		c0.8,0.8,1.3,1.4,1.9,1.8c1.2,1,2.5,1.8,3.6,2.9c2,1.9,4,3.9,5.9,5.9c0.7,0.7,1.2,1.7,1.6,2.6c0.6,1.4,0.1,2.8-0.8,3.4
		c-0.9,0.5-1.7,0.1-3-1.1c-3-2.8-5.9-5.8-9.2-8.4c-7.7-6.1-16.5-8.8-26.4-7.7c-6.9,0.7-13.3,2.9-19.2,6.5c-4.6,2.7-8.4,6.7-13.3,9.1
		c-1.3,0.6-2.1,2-2.3,3.9c2.3-0.7,4.5-1.2,6.5-2.1c4.1-2,8.1-4.2,12.2-6.3c3-1.6,6.1-2.7,9.6-2.3c1.3,0.1,2.6,0.3,3.9,0.2
		c8.3-0.7,15.5,2.3,22.4,6.4c2.2,1.3,3.4,3.5,2.8,6.2c-0.3,1.3-0.7,2.5-1.1,3.8c-0.3,0.9-0.6,1.8-0.8,2.7c-0.4,2.3,0.2,3.7,2.3,4.7
		c2.1,1,4.3,1.6,6.5,2.4c1.3,0.4,2.4,1,2.9,2.4c0.9,2.5,1.8,5.1,2.9,7.6c1.9,4.2,3.4,8.5,2.2,13.3c-0.4,1.7,0.5,2.9,1.9,3.1
		c0.9,0.1,1.8,0.1,2.7,0c1.1,0,2-0.6,2.6-1.5c1.2-1.9,1.9-3.9,1.9-6.2c-0.1-3.9,0-7.8,0-11.6c0-0.4,0.3-1,0.6-1.3
		c1.2-0.9,3.8-0.1,4,1.4c0.6,3.9,2.4,7.7,1.1,11.7c-0.1,0.3,0.4,1.1,0.6,1.1c0.5,0,1.1-0.3,1.5-0.6c0.2-0.2,0.3-0.7,0.2-1
		c-0.1-2,0.6-3.7,1.4-5.5c3.5-8,3.3-15.8-1.6-23.1c-1.8-2.7-4.1-5-6.3-7.4c-2.6-2.9-5.4-5.8-8-8.8c-1.1-1.2-1.7-2.8-2.7-4.1
		c-2.2-3.1-5.6-3.9-9-4.5C369.7,335.7,369.2,336,368.3,336.2z M533.5,422.1c0.4-2.1,0.1-4-1.1-5.7c-1.8-2.7-4.1-4.7-7.3-5.7
		c-2.5-0.7-4.9-1.7-7.3-2.5c-0.8-0.3-1.5-0.2-2.1,0.5c-0.4,0.6-0.9,1.2-1.2,1.8c-0.9,1.9-0.3,2.8,1.7,3.2c1.5,0.3,3.1,0.6,4.5,1.1
		c3.7,1.3,6.7,3.7,9.7,6.3c0.8,0.7,1.8,1.4,2.2,2.3c1,2.1,0.3,4.2-2,5.2c-2.1,0.9-4.3,1.5-6.6,2.1c-2.6,0.7-5,1.8-6.7,4.1
		c-1.9,2.5-2.8,5.3-2.5,8.5c0.2,2.2-0.9,3.5-2.8,3.3c-4-0.4-7.3,1.1-10.1,3.9c-1.8,1.8-3.5,3.7-5.4,5.5c-1.7,1.5-2.9,3.3-3.4,5.5
		s-0.8,4.5-1.4,6.8c-0.7,2.7-1.6,5.2-2.3,7.9c-0.5,1.9,0.2,3,2.1,3.1c3.6,0.1,7.3,0,10.9-0.3c5.9-0.5,11.6-1.8,17.3-3.4
		c1.4-0.4,2.8-0.8,4.1-1.4c2-0.9,2.1-2.7,0.3-4c-0.6-0.4-1.3-0.9-1.9-1.3c-1.8-1.4-1.9-2.3,0-3.6c2.2-1.4,4.4-2.6,6.6-4
		c0.8-0.5,1.6-1,2.1-1.7c0.3-0.4,0.5-1.2,0.3-1.7c-0.1-0.3-0.9-0.5-1.4-0.6c-1.2-0.2-2.5-0.3-3.6-0.6c-1-0.2-1.7-0.9-1.9-2
		c-0.1-1.2,0.2-2.2,1.3-2.8c0.8-0.5,1.7-0.8,2.6-1.2c1.7-0.7,3.5-1.2,5.1-1.9c2.4-1.1,3.5-3.2,3.7-5.8c0-0.6,0-1-0.9-1
		c-1.3,0-2.2,0.5-3.2,1c-1.3,0.6-2.8,1.2-4.2,1.6c-1.7,0.4-3-0.7-3.4-2.3c-0.3-1.2,0.3-1.6,2-2.5c2.8-1.4,5.7-2.9,8.3-4.7
		c6-4.1,9.2-9.8,8.6-17.2c-0.2-2.1-0.9-4-2.6-5.3c-0.4-0.3-1.1-0.2-1.6-0.2c0,0.5-0.1,0.9-0.1,1.4c0.1,1.7,0.5,3.3,0.3,5
		C540,421.5,537.3,422.6,533.5,422.1z M521.6,309.7c0-0.2,0-0.3-0.1-0.5c-2.3,0.4-4.8,0.3-6.7,1.2c-4.5,2.2-8.8,4.8-12.9,7.5
		c-4.6,2.9-8.4,6.8-11.1,11.5c-1.4,2.3-1.6,4.8-0.6,7.3c1.6,4,3.1,8,2.8,12.5c-0.1,1.9,0.5,2.6,2.3,3.3c1.2,0.4,2.4,0.8,3.6,1.3
		c5,1.8,10.1,3.2,15.3,3.9c2.5,0.3,3.3-0.5,3.1-3c-0.2-2.3-0.3-4.7-0.1-7c0.2-2.7,1.2-5.2,3.4-7.1c1.5-1.3,3.3-2.4,5-3.5
		c3.2-2.1,3.4-3.1,1-6.1c-1.4-1.8-2.8-3.6-4-5.5c-1.2-2-0.9-4.1,0.7-5.5c3.1-2.7,6.8-4.1,10.8-3.3c3.3,0.6,6.4,1.8,9.6,2.8
		c0.5,0.2,1.1,0.4,1.6,0.4c1.1,0,1.3-0.6,0.7-1.5c-1.3-2.1-3.3-3.4-5.3-4.7c-4.1-2.7-8.4-4.6-13.4-4.3
		C525.4,309.4,523.5,309.5,521.6,309.7z M490.3,498.4c0-0.1,0-0.2,0-0.3c-5.5,0.8-11.1,1.3-16.6,2.3c-9.2,1.7-18,4.5-26.9,7.3
		c-1.7,0.5-2.2,1.4-1.9,3.2c0.3,1.6,0.7,3.2,1,4.8c1.5,6.4,2.9,12.9,6.6,18.6c1.5,2.3,2,4.9,1.8,7.7c0,0.6,0,1.3,0.3,1.8
		c0.1,0.3,0.8,0.6,1.2,0.5c1.6-0.2,3.2-0.6,4.8-0.7c3.1-0.2,5.7-1.2,7.6-3.6c1.7-2.1,3.3-4.3,4.9-6.5c2.9-3.7,5.9-7.4,8.7-11.1
		c3-4,5.2-8.4,5.7-13.5c0.2-1.9,0.9-3,2.5-4.1c1.8-1.2,2.5-3.2,2.5-5.3c0-0.3-0.6-0.8-1-1C491.2,498.3,490.7,498.4,490.3,498.4z
		 M406.7,292.8c0.1,0,0.3-0.1,0.4-0.1c-0.4-3.1-0.8-6.2-2.4-8.9c-3.2-5.2-5.5-10.7-7.2-16.5c-2.6-8.5-6-16.7-10.6-24.4
		c-2-3.3-3.6-6.8-5.4-10.3c-0.6-1.1-0.9-2.3-1.5-3.4c-0.1-0.3-0.6-0.6-0.9-0.6c-0.2,0-0.5,0.4-0.6,0.7c-0.6,1.5-1.1,2.9-1.6,4.4
		c-0.7,2.3-0.3,4.3,1.5,6c0.8,0.8,1.3,1.9,1.7,2.9c0.6,1.5,1,3,1.6,4.5c2.5,5.9,5.1,11.7,7.4,17.6c2.1,5.4,4,10.9,5.9,16.4
		c1.2,3.4,2.5,6.7,3.3,10.2c2,8.2,3.7,16.4,5.5,24.6c0.7,3.2,1.4,6.5,1.7,9.7c0.6,6.8,1,13.5,1.4,20.3c0.1,2.1,0.5,4.2-0.4,6.2
		c-0.5,1.1-0.5,2.5-0.5,3.8c0,1.5,0.7,2.6,2.1,3.2c1.3,0.6,2.4,0,3.4-0.8c0.7-0.6,1.4-1.3,2.1-1.8c0.8-0.5,1-1.1,0.8-2
		s-0.4-1.9-0.4-2.8c-0.1-1.9,0-3.7-0.2-5.6c-0.1-1.6-0.5-3.2-0.6-4.7c-0.5-4.7-1-9.3-1.5-14c-0.6-5.4-1-10.7-1.7-16.1
		c-0.5-3.8-1.1-7.6-1.8-11.3C407.9,297.6,407.2,295.2,406.7,292.8z M457.8,328.3c-0.8,1-1.2,1.9-1.9,2.5c-2.5,2.2-5.4,3.8-8.5,5
		c-1.6,0.6-3.2,1.4-4.7,2.2c-1,0.5-1.5,1.4-1.3,2.5c0.1,0.8,0.3,1.7,0.7,2.5c3,5.7,3.6,11.6,1.9,17.7c-2,7.3-5.6,13.8-9.5,20.3
		c-0.6,1-1.3,1.9-1.9,2.9c-0.2,0.4-0.2,1-0.3,1.6c0.5,0,0.9,0.1,1.4,0c0.6-0.1,1.2-0.3,1.8-0.5c1.3-0.3,2.6-0.7,4-0.7
		c1.7-0.1,3.3-0.3,4.5-1.4c2.7-2.5,5.7-4.9,7.8-7.9c3.5-4.9,6.4-10.3,9.4-15.5c1.6-2.9,2-6.2,1.8-9.5c-0.1-2-0.2-4-0.6-5.9
		c-1-4.5-2.2-8.9-3.4-13.3C458.9,329.9,458.3,329.2,457.8,328.3z M455.5,421.2c-0.1,0-0.2,0-0.3,0.1c0.7,3.2,1.2,6.5,2,9.7
		c1.4,5.2,4,10,7.3,14.3c1,1.2,1.9,1.4,2.8,0.4c4.3-4.7,8.7-9.2,12.8-14.1c3.8-4.6,6.2-10.1,7.4-16c0.3-1.7-0.4-2.8-2.1-2.8
		c-3.1,0-6.2-0.1-9.3,0.3c-5.3,0.7-10.4,2.4-15.8,2.8C457.8,416.1,455.3,417.8,455.5,421.2z M371,212.2v0.1c0.2,0,0.5,0,0.7,0.1
		c5.3,0.4,9.5-1.7,13-5.6c0.3-0.4,0.6-1,0.5-1.5c0-0.3-0.8-0.5-1.3-0.6c-1.7-0.5-3.5-0.7-5.2-1.4c-3.3-1.3-6.6-1.5-10.1-1
		c-2.4,0.4-3.7,1.4-4.2,3.6c-0.8,3.2-1.8,4-5.1,4.4c-2.5,0.3-5,0.7-7.2,2.1c-2.4,1.5-3.3,3.6-2.4,6.2c0.4,1.3,1.1,2.5,1.9,3.6
		c3.3,4.5,6.9,8.8,9,14.1c0.3,0.8,0.7,1.7,1.8,1.6c1.1,0,1.6-0.9,1.9-1.7c0.7-1.7,1.3-3.4,2-5.1c1.6-4.1,1.8-8.1,0.1-12.2
		c-0.6-1.3-0.8-2.8-1.1-4.3c-0.2-1,0.3-1.7,1.4-1.9C368.1,212.4,369.5,212.3,371,212.2z M330,412.8c-2.5-1.1-4.9-1.9-7-3.1
		c-1.4-0.7-2.6-1.9-2.6-3.8c0-0.9,0.4-1.4,1.3-1.2c0.3,0.1,0.7,0.1,1.1,0.2c4.6,1.3,9.2,2.6,13.8,4c3.9,1.2,7.6,0.9,11-1.7
		c1.8-1.3,2.2-3.1,2-5.1c-0.1-1.1-0.8-1.9-2-2.1c-2.9-0.4-5.7-0.9-8.6-1.1c-3.8-0.2-7.4-0.8-10.8-2.9c-3.1-1.9-5.3-1-6.8,2.4
		c-0.3,0.6-0.6,1.3-1.1,1.8c-0.7,0.8-1.7,0.7-2.5,0.2c-0.8-0.4-1.1-1.2-0.8-2.1c0.2-0.8,0.5-1.7,0.7-2.5s-0.1-1.3-0.8-1.6
		c-2.1-0.7-4,0.3-4.1,2.6c-0.1,5.7-0.1,11.5-0.1,17.2c0,1.4,0.3,2.8,0.6,4.1c0.2,1.1,1,1.7,2.2,1.5c0.9-0.2,1.9-0.4,2.7-0.8
		c3.4-1.6,6.8-3.3,10.2-5C329,413.8,329.5,413.2,330,412.8z M340.1,453.8c-0.4,0.3-1.1,0.7-1.4,1.3c-1,1.8-0.3,3.6,1.7,4.6
		c9.7,4.7,20,7.6,30.5,9.8c0.5,0.1,1.3-0.1,1.5-0.5c0.3-0.4,0.2-1.3,0-1.7c-3.8-7.4-6.7-15.1-8.7-23.1c-0.5-2.1-1.5-3.3-3.7-3.5
		c-4-0.4-6,0.1-7,4.9c-0.4,2.2-1.1,4.4-2,6.5c-1.3,2.8-3.6,3.7-6.7,3C343,454.7,341.7,454.3,340.1,453.8z M486.9,448.7
		c0,2.1,1.4,3,3.1,2.1c1.4-0.7,2.7-1.5,4.2-2c3.4-1.3,6.3-3.2,8.7-6c2.3-2.7,4.6-5.3,7.5-7.3c1.3-0.9,1.9-2.4,1.8-4
		c-0.1-1.4-0.4-2.8-0.7-4.1c-0.4-1.6-1.5-2.6-3.2-2.8c-1.5-0.1-3.1-0.3-4.6-0.1c-3.5,0.5-6.9,1.5-10,3.3c-4.7,2.6-7.8,7.4-6.5,13.4
		c0.5,2.4,0.9,4.7-0.2,7C486.9,448.3,487,448.6,486.9,448.7z M502,310.7c-0.2-1.6-1.1-2.3-2.3-2.6c-2.1-0.6-4.2-1.1-6.2-1.5
		c-0.2-0.1-0.5,0-0.7,0.1c-5.2,0.7-10.3,1.4-15.5,2.2c-2.5,0.4-4.7,1.6-6.5,3.5c-0.7,0.8-0.8,1.4-0.1,2.2c2.7,3.2,5.5,6.1,9.1,8.2
		c1.9,1.1,3.8,2.3,5,4.3c0.4,0.7,0.9,0.6,1.3,0s0.8-1.2,1.3-1.7c1.5-1.7,3.1-3.3,4.5-5.1c2.3-3,4.7-5.8,8.1-7.5
		c0.4-0.2,0.9-0.5,1.2-0.8C501.6,311.6,501.8,311.1,502,310.7z M436.5,538c-0.2-0.8-0.4-1.7-0.8-2.5c-1.7-3.5-4.9-5.2-8.4-6.4
		c-0.3-0.1-0.7,0.1-1,0.2c-2.7,1.2-5.4,2.4-8.1,3.6c-3.4,1.4-6.9,2.7-9.8,5.1c-1.2,1-1.2,2.3,0,3.3c0.7,0.6,1.4,1.2,1.9,2
		c1.1,1.6,2,3.3,3.2,4.8c2.1,2.6,3.8,2.8,6.1,1c0.3-0.2,0.6-0.5,1-0.7c1.2-0.8,2.5-1.6,3.8-2.3s2.6-1.1,3.9-1.7
		c1.6-0.7,3.2-1.6,4.9-2.2C435.4,541.5,436.3,540.4,436.5,538z M354.6,373.7c1.5,0,3.3,0.1,4.3-1.5s0.1-3.2-0.7-4.6
		c-1.3-2.1-1.6-4.2-0.8-6.6c1.2-3.8-0.2-5.7-4.2-6.3c-1.3-0.2-2.6-0.1-3.8-0.3c-2.9-0.5-5.4,0.3-7.5,2.3c-1.3,1.3-2.3,2.7-3.5,4.1
		c-1.5,1.7-3,3.5-4.6,5.2c-0.7,0.7-0.5,1.5,0.4,1.8c3.8,1.3,7.7,2.7,11.5,4C348.6,372.7,351.5,373.6,354.6,373.7z M423.7,372.9
		c-3.1,0.2-3.9,1.1-3,3.7c1.3,3.9,0.8,4.7-3,6.1c-0.6,0.2-1.2,0.7-1.6,1.2c-0.6,0.8-0.6,2.4,0.1,3.1c0.7,0.9,1.5,0.4,2.3,0.1
		c0.3-0.1,0.6-0.2,0.9-0.2c2.7,0.1,4.5-1.3,6-3.3c1.2-1.7,2.6-3.2,4-4.8c1.7-1.9,1.3-4.1-1.1-4.9
		C426.7,373.5,425.2,373.3,423.7,372.9z M330.7,239.5c0.6-0.1,0.8-0.1,1-0.1c3-0.5,5.1-2.4,7.1-4.5c1.4-1.4,3.1-2.7,4.8-3.8
		c2-1.3,2.8-2.7,2.3-5c-0.3-1.2-0.6-2.3-1.1-3.4c-0.4-1.2-1-1.2-1.8-0.3c-1.1,1.3-2.2,2.7-3.2,4c-2.4,3.1-4.9,6.2-7.2,9.4
		C331.9,236.8,331.4,238,330.7,239.5z M535.3,410.8c0.6-0.3,1.3-0.5,1.6-1c0.2-0.3-0.4-1.1-0.7-1.6c-0.2-0.3-0.7-0.6-1-0.8
		c-5.6-3.4-11.6-6.2-17.8-8.3c-2.1-0.7-3.1-0.1-3.7,1.9c-0.4,1.2-0.2,1.5,1.1,1.8s2.6,0.5,3.8,0.8c5.2,1.3,10,3.6,14.7,6.2
		C533.9,410.3,534.5,410.5,535.3,410.8z M463.4,368c-1.2,0-1.8,0.9-2.4,1.7c-3,4.4-6.1,8.8-9.1,13.2c-0.6,0.9-1.2,1.8-1.8,2.7
		c0.1,0.1,0.2,0.2,0.2,0.3c1.5-0.2,3-0.4,4.4-0.8c2.1-0.5,3.3-2,3.8-4.1c0.2-1,0.2-2.1,0.1-3.2s0-1.9,0.9-2.7c1-0.8,1.9-1.7,2.7-2.7
		c0.4-0.5,0.7-1.1,0.9-1.6C463.4,369.9,463.3,369,463.4,368z M482.2,494.8c2.2-0.3,4.1-0.4,5.9-0.7c1.8-0.3,2.5-1.1,2.8-3
		c0.2-1.5-0.4-2.2-1.8-2.1c-1.6,0.1-3,0.1-4.5-0.6c-1.1-0.5-2,0-2.4,1.2c-0.4,1.1-0.7,2.3-1,3.4
		C480.9,494.3,481.4,494.8,482.2,494.8z M445.6,415.8c0,0.1,0,0.2,0,0.3c1.4-0.3,2.9-0.4,4.3-0.8c1-0.3,1.8-0.9,1.7-2
		c0-1-1-1.2-1.8-1.5c-1.4-0.6-2.9-1.1-4.3-1.8c-0.9-0.5-1.6-0.5-2.1,0.4c-0.6,1.1-1.2,2.2-1.6,3.4c-0.5,1.3,0,2,1.4,2.1
		C444,415.9,444.8,415.8,445.6,415.8z M365.9,383.6c1,0,1.5-1,1.1-2c-0.3-0.9-0.5-1.8-0.8-2.7c-0.1-0.5-0.2-1.1-0.4-1.6
		c-0.4-0.8-1.6-1.4-2.4-1.2c-0.9,0.2-1.8,0.4-2.6,0.6c-0.9,0.1-1.1,0.6-1,1.4C360.1,380.5,363.6,383.5,365.9,383.6z M412.7,366.3
		c0-1.8-0.7-2.7-1.8-2.4c-1,0.3-2,0.5-3,0.8c-1.3,0.3-1.6,0.9-1.4,2.2c0.2,0.8,0.3,1.6,0.4,2.3c0.4,2.6,1,2.8,3,1.1
		C411.4,369.3,412.3,367.8,412.7,366.3z M507.8,418.4c1.7,1.7,3.7,2.3,5.9,2.1c0.4,0,0.9-0.3,1-0.6c0.1-0.3-0.2-0.8-0.5-1
		C512.7,417.3,509.7,417,507.8,418.4z"/>
	<path d="M348.4,626.7c-0.4-5.1-0.6-10.2-1.2-15.3c-0.2-2.2,0.3-4.2,1-6.2c0.8-2.3,2.2-3.5,4.6-4.2c4.6-1.4,8.8-0.9,12.9,1.2
		c2.9,1.5,5.6,3.4,8.3,5.3c2.1,1.5,4.5,3,6.1,4.9c2.5,3,4.9,6.2,4.3,10.5c-0.1,0.6-0.3,1.3-0.7,1.8c-3.3,3.8-6.7,7.5-10,11.4
		c-1.2,1.4-2.3,3-3.4,4.6c-2,3.1-4.9,5.4-8,6.9c-2.5,1.2-5.5,2.4-8.5,0.7c-0.8-0.4-1.6-0.9-2.2-1.6c-2.6-2.7-3-6.2-3.2-9.6
		c-0.2-3.5-0.3-7-0.4-10.5C348.2,626.7,348.3,626.7,348.4,626.7z M352.3,626.2c-0.2,6.2,1.3,12,3.1,15.7c0.8,1.8,2,2.2,3.6,1.1
		c2.5-1.8,5-3.6,7.3-5.6c1.9-1.7,3.5-3.8,5.3-5.7c1.9-1.9,4-3.6,5.9-5.5c2.6-2.5,2.8-5.4,0.4-7.9c-2.2-2.3-4.4-4.5-6.8-6.5
		c-4.1-3.4-8.8-5.7-13.8-7.2c-1.5-0.5-2.3,0-2.5,1.6c-0.2,1.2-0.4,2.4-0.6,3.7C353.2,615.3,352.2,620.7,352.3,626.2z"/>
	<path class="st0" d="M333.3,461.5c1.6,0.7,3.1,1.3,4.5,1.8c10.8,4.3,22,7.4,33.3,10.1c9.5,2.2,19,4.3,28.5,6.4
		c7.3,1.5,14.7,2.5,22.2,2c2.3-0.1,4.6-0.7,6.9-0.9c2.7-0.2,5.3-0.3,8-0.2c1.1,0,1.8-0.4,2.3-1.4c0-0.1,0.1-0.2,0.2-0.3
		c0.5-0.5,0.9-1,1.4-1.4c0.4,0.6,1.1,1.2,1.2,1.9c0.3,2.2-0.7,4.1-2.1,5.7c-0.8,0.9-1.8,1.6-2.8,2.2c-6.3,3.3-12.6,6.9-19.4,9.3
		c-2.5,0.9-4.9,1.9-7.6,1.3c-1.3-0.3-2.7-0.8-3.9-1.4c-1.1-0.5-2-0.7-3.2-0.4c-4.2,1.1-7.6-0.3-10.1-3.9c-1.7-2.4-3.2-5-4.8-7.4
		c-0.6-0.9-1.5-1.7-2.4-2.5s-2.1-1-3.2-0.5c-1.9,0.8-2.2,1.7-1.2,3.5c0.6,1,1.1,2,1.5,3.1c1.4,3.2,3.4,5.9,5.8,8.5
		c0.8,0.8,1.6,1.7,2.5,2.5c3.2,2.8,4.9,6.4,5.6,10.4c0.9,5.1,3.8,8.6,8.5,10.2c3.6,1.3,5.3,3.8,6.2,7.3c0.9,3.5,0.7,3.6-2.8,4.8
		c-1.3,0.4-2.6,1.1-3.7,1.9c-3.2,2.7-3.2,6.5-0.2,9.7c1.1,1.2,2.3,2.2,3.3,3.4c1.5,1.7,2.4,3.8,2.9,6c0.6,2.5,1.6,3.1,4.2,2.5
		c1.6-0.4,3.2-0.8,4.9-1.2c1.9-0.4,3,0.2,3.7,2c1,2.4,0.6,4.9-1.3,6.8c-2.9,2.9-6,5.5-8.7,8.6c-6.4,7.1-14.4,11.3-23.2,14.5
		c-5,1.8-9.7,1.8-14.3-0.5c-3.8-1.9-7.5-3.9-11.1-6c-2-1.2-3.5-2.9-4.4-5.1c-1.4-3.2-3-6.2-4.2-9.5c-1.1-2.9-1.5-6-2.5-9
		c-3.2-9.8-5.4-19.8-8-29.8c-1.2-4.8-2.8-9.5-4.1-14.3c-1-3.7-1.6-7.5-2.3-11.3c-0.6-3.1-1.3-6.2-2.6-9.2c-0.2-0.6-0.2-1.3-0.1-1.9
		c0.7-2.2,1.3-4.6,2.4-6.6c1.5-2.6,1.3-5.3,1.4-8c0-2.9-1-5.3-3.8-6.6c-1.4-0.7-2.3-1.9-2.6-3.5C333.6,464,333.5,462.9,333.3,461.5z
		"/>
	<path class="st0" d="M276.9,364.8c0.7-2.1,2.1-3.3,3.7-4.5c2.6-1.9,5.5-2,8.5-1.5c3.5,0.5,7,1.1,10.3,2.1c4.4,1.4,8.8,2.7,12.5,6
		c-0.9,1-2.3,1.1-3.5,1.2c-1.5,0-3-0.3-4.5-0.2c-4.7,0.2-9.1,1.5-13.4,3.2c-1.4,0.5-1.7,1.6-1.2,2.9c0.5,1.2,1.4,1.8,2.8,1.4
		c2.5-0.7,5-1.7,7.5-2.3c5.7-1.2,11.4-1.6,17.3-1.2c14.1,0.9,26.6,6.4,38.9,12.7c4.2,2.2,8.3,4.6,11.3,8.3c1.6,2,2.8,4.2,4.2,6.4
		c0.4,0.6,0,1.2-0.6,1.2c-3.5,0.2-6.4,2-9.5,3.3c-0.8,0.3-1.7,0.6-2.5,0.5s-1.6-0.6-2.1-1.2c-0.5-0.7,0-1.5,0.6-2.1
		c0.7-0.8,1.5-1.5,2-2.4c0.3-0.7,0.4-1.7,0.1-2.5c-0.2-0.8-1-1-1.9-0.9c-1.8,0.2-3.6,0.5-5.4,0.4c-3.8-0.1-7.7-0.3-11.5-0.6
		c-3.1-0.2-6-1.1-8.8-2.4c-5.5-2.5-11.3-3.6-17.4-2.8c-6,0.7-11.4,3-16.3,6.4c-3.8,2.5-7.5,5.2-11.3,7.6c-7.1,4.5-14.8,5-22.8,2.9
		c-3-0.8-6-1.8-9-2.4c-1.5-0.3-3.2-0.1-4.7,0.1c-1.7,0.3-3.1,1.4-3.8,3c-2,4.3-5,7.7-8.6,10.6c-3.7,3.1-7.4,6.3-11.3,9.1
		c-5.8,4.1-12.4,6.6-19.5,7.3c-6.1,0.7-12.3,0.5-18.4,0.2c-7.6-0.4-15-1.7-22.3-3.6c-0.3-0.1-0.6-0.4-0.8-0.5
		c0.2-0.3,0.3-0.6,0.6-0.8c2.3-1.2,4.6-2.3,6.9-3.5c5.3-2.8,10.6-5.5,15.8-8.6c4.6-2.7,9-5.7,13.1-9.2c4.8-4,9.7-7.8,14.4-11.9
		c4-3.5,8.1-6.6,12.9-8.7c4.5-1.9,9-3.7,13.5-5.4c7-2.7,14-5.3,21-7.8c2.5-0.9,5.1-1.3,7.6-1.9c2.8-0.6,5.2-2.2,7.5-3.9
		c0.7-0.5,1.3-1,1.9-1.6c1.2-1.2,1-2-0.6-2.4c-0.4-0.1-0.9-0.2-1.3-0.2C277.9,364.5,277.5,364.7,276.9,364.8z"/>
	<path class="st0" d="M493.3,494.7c0.7-0.1,1.4-0.2,2.1-0.3c2.1-0.4,2.9-1.4,2.7-3.5c-0.2-2.6-0.2-2.6,2.4-3.2
		c1.6-0.4,3.2-0.9,4.9-1.1c1.6-0.2,3.3,0,4.8-0.8c0.8-0.4,1.7,0.3,1.8,1.4c0.5,4.6,0.4,9.1-1.2,13.6c-6.5,18.4-12.8,36.9-19.2,55.3
		c-1.5,4.3-3.2,8.5-4.9,12.7c-1.3,3.2-2.4,6.5-3.8,9.7c-1,2.1-2.3,4-3.6,5.9c-0.5,0.7-1.3,1.3-2.1,1.7c-7.3,4-14.8,7.8-23,9.5
		c-4.1,0.8-8.3,1.2-12.4,1.6c-2.9,0.3-5.8,0.4-8.7,0.5c-1.3,0-2.5-0.2-3.8-0.2c-2.9-0.1-5.8-0.2-8.7-0.3c-4.6-0.1-9.3-0.4-13.6-2.3
		c-1-0.5-2-1.1-3-1.6c0-0.1,0-0.3,0-0.4c0.9-0.3,1.8-0.6,2.8-0.8c7.4-1.4,13.8-4.9,19.6-9.5c5.5-4.3,10.7-9,15.4-14.3
		c3.6-4.1,6.8-8.5,10.2-12.8c1.1-1.4,2.1-2.9,3.3-4.3c0.6-0.7,1.5-1.2,2.4-1.5c2.8-0.7,5.6-1.4,8.4-1.9c2.6-0.5,4.5-2.2,5.4-4.3
		c1.7-3.7,4.4-6.5,6.9-9.6c1.4-1.7,3-3.3,4.3-5.2c2.3-3.5,4.4-7.2,6.5-10.8c1.3-2.3,2.4-4.7,3.7-7c1.3-2.4,2.7-4.7,4-7.1
		c0.5-0.9,0.8-2,1-3c0.3-1.7-0.2-2.6-1.7-3.4c-0.6-0.3-1.2-0.5-1.8-0.7C493.3,496.2,493.1,495.8,493.3,494.7z"/>
	<path class="st0" d="M314,62.2c41.8,0,75.9,33.7,75.9,76c0.1,42-34.7,77.5-79.2,75.8c-39-1.4-73.8-34.2-72.7-78.1
		C239.1,95.8,271.8,62.3,314,62.2z M314,207.4c37.6,0,69.1-30.5,69.2-68.9c0.2-38.6-30.9-69.6-69.2-69.6
		c-38.8,0-69.2,31.6-69.2,69.3C244.7,176.3,275.9,207.4,314,207.4z"/>
	<path class="st0" d="M417.1,473.4c-4.9,0-9.8,0.2-14.8-0.1c-6-0.3-12-0.9-18-1.6c-3.1-0.4-5.2-2.6-6.7-5.1
		c-0.8-1.4-1.3-3.1-1.8-4.6c-1.5-4.2-2.8-8.4-4.4-12.5c-1.5-3.8-2.3-7.8-2.6-11.8c-0.1-1,0.2-1.7,1.2-2.1c2.3-1.1,4.5-1.4,6.8,0.1
		c1.8,1.2,3.6,2.3,5.5,3.2c2.9,1.4,5.3,3.6,7.9,5.4c1.5,1,2.8,2.2,4,3.4c2,1.9,3.9,3.8,5.8,5.8c0.7,0.7,1.3,1.6,2.1,2.3
		c2.9,2.7,5.9,2.4,8.1-0.9c2.9-4.3,5.8-8.5,8.2-13.1c2.8-5.4,7.1-8.7,12.7-10.8c3.6-1.3,7.2-2.7,10.8-4.1c2.2-0.8,3-0.3,3.9,1.9
		c0.4,1,1.2,2,1.9,2.9c4.2,5.8,8.4,11.6,11.7,17.9c1.1,2.1,2.2,4.3,3.3,6.5c2.2,4.7,0.1,7.9-2.7,10.3c-4.2,3.6-9.1,5.7-14.7,6
		c-9.4,0.5-18.7,1-28.1,1.5C417.1,473.6,417.1,473.5,417.1,473.4z"/>
	<path class="st0" d="M393.2,400.6c-0.7,4.8-1.4,9.4-2,13.9c0,0.3-0.1,0.5-0.2,0.8c-0.7,2.8,1,3.9,3.4,4.3c1.4,0.2,2.4-0.7,2.2-2.1
		c-0.7-6.4,2-11.5,5.6-16.4c1.5-2.1,3.6-3.4,6-4.5c6.3-2.9,12.8-4.9,19.7-5.6c9.1-0.9,17.9,0.6,26.3,4.2c4.8,2,9.7,3.7,14.8,4.4
		c1.5,0.2,2.9,0.3,4.4,0.3c0.8,0,1.5,0,1.7,1c0.1,0.9-0.4,1.5-1.3,1.7c-1.6,0.3-3.3,0.8-4.9,0.9c-5,0.3-10,0.4-15,0.5
		c-7.6,0.2-15.3,0.4-22.9,0.8c-4.7,0.3-8.2,2.8-10.8,6.6c-2.1,3.1-4,6.3-6.1,9.3c-2.9,4.2-6.8,7.4-11,10.2c-3.1,2-6.3,1.8-9.6,0.3
		c-4.3-1.9-8.6-3.8-13-5.5c-3.2-1.2-6.5-1.7-10-1.7c-4.5,0-8.4,1.7-11.9,4.3c-3.7,2.7-6.7,6.2-9.3,10c-1.5,2.1-2.2,4.6-2.7,7.1
		c-0.2,0.9-0.8,2.3-1.5,2.5s-1.9-0.5-2.7-1.1c-2-1.7-2.3-3.9-1.7-6.4c1.3-5.5,2.5-10.9,5.2-15.9c5.5-10.3,14.1-16.8,25.2-19.9
		c4.2-1.2,8.5-1.9,12.8-2.7C387.2,401.4,390.2,401.1,393.2,400.6z"/>
	<path class="st0" d="M294.1,470.3c0.3-6.2,0.6-12.3,3-18.1c2.1-5,4.9-9.4,8.4-13.4c3.8-4.3,7.7-8.6,11.6-12.8
		c3.9-4.1,8.8-6.3,14.4-7.3c0.5-0.1,1.1-0.4,1.4-0.8c0.8-0.9,1.6-1.5,2.8-1.4c0.5,0,1.2,0.4,1.2,0.8c0.1,0.5-0.2,1.3-0.6,1.6
		c-0.5,0.4-1.2,0.4-1.9,0.6c-0.7,0.2-1.4,0.3-1.9,0.7c-5.2,4-10.5,7.9-15.5,12c-6.2,5.1-9.9,11.8-11.9,19.5
		c-0.4,1.7-0.8,3.4-1.1,5.1c-0.3,1.4,0.3,2.4,1.6,2.7c1.1,0.2,1.8-0.3,2.1-1.7c1.2-5.1,3.1-10,6.1-14.3c3.9-5.7,9-10.2,14.5-14.1
		c2.5-1.8,5.1-3.5,7.8-5.2c0.8-0.5,1.7-0.9,2.6-1c1-0.2,1.5,0.5,1.4,1.5c-0.1,0.9-0.3,1.7-0.2,2.6c0.4,5.5-2.2,9.5-6,12.9
		c-2,1.8-4.3,3.5-6,5.6c-4.3,5.6-4.5,11.7-1.5,18c0.9,1.9,1.8,3.7,2.7,5.6c1.2,2.7,2.8,4.9,5.6,6.1c1.2,0.5,1.5,1.4,1,2.8
		c-0.3,0.9-0.7,1.8-1.1,2.6c-4,7.9-7.9,15.8-11.9,23.6c-1,2.1-2.5,3-4.1,2.4c-0.8-0.3-1.7-0.9-2-1.5c-1.6-3.4-4.3-5.8-7.3-7.9
		c-1.9-1.3-3.8-2.6-5.6-4c-5.1-4.1-8-9.5-8.9-16C294.4,475.1,294.3,472.7,294.1,470.3z"/>
	<path class="st0" d="M465.4,387.6c0.3-1.1,0.5-2.5,0.9-3.8c2.2-6.2,2.6-12.5,2.2-19c-0.5-7.2-0.8-14.3-1.3-21.5
		c-0.1-1.4-0.3-2.9-0.8-4.2c-2-5.8-4-11.6-6.2-17.3c-1.3-3.4-3.2-6.5-5.5-9.4c-0.9-1.2-1.6-2.6-2.2-4c-1-2-2-3.9-4.1-5
		c-0.3-0.1-0.6-0.6-0.5-0.8c0.1-0.3,0.5-0.6,0.8-0.8c2.1-0.7,3.9,0.1,5.5,1.6c4.6,4.3,8.8,8.9,12.5,14c1.9,2.7,4.4,4.8,7,6.6
		c6.7,4.7,10.6,11.2,13,18.9c1.3,4.3,2.6,8.7,4,13c0.2,0.7,0.7,1.4,1.2,1.9c3.5,3.3,4.7,7.4,4.3,12c-0.1,1.7-0.1,3.4-0.1,5.2
		c-0.1,2.7,0,5.4-0.2,8c-0.1,1.1-0.4,2.2-0.9,3.2c-1.8,3.7-3.9,7.2-7.2,9.9c-0.6,0.5-1.6,0.9-2.5,0.9c-5.7-0.1-11.3-0.8-16.8-2.1
		c-1.3-0.3-2.2-1.1-2.4-2.5C465.8,391,465.6,389.4,465.4,387.6z"/>
	<path class="st0" d="M368.3,336.2c0.9-0.2,1.5-0.6,2-0.5c3.4,0.6,6.8,1.4,9,4.5c0.9,1.3,1.6,2.9,2.7,4.1c2.6,3,5.3,5.8,8,8.8
		c2.2,2.4,4.5,4.7,6.3,7.4c4.9,7.3,5.1,15.1,1.6,23.1c-0.8,1.8-1.5,3.5-1.4,5.5c0,0.3,0,0.8-0.2,1c-0.4,0.3-1,0.6-1.5,0.6
		c-0.2,0-0.7-0.8-0.6-1.1c1.4-4.1-0.5-7.9-1.1-11.7c-0.2-1.5-2.8-2.4-4-1.4c-0.3,0.3-0.6,0.9-0.6,1.3c0,3.9-0.1,7.8,0,11.6
		c0,2.3-0.6,4.3-1.9,6.2c-0.6,0.9-1.4,1.5-2.6,1.5c-0.9,0-1.8,0.1-2.7,0c-1.5-0.2-2.4-1.4-1.9-3.1c1.2-4.8-0.3-9-2.2-13.3
		c-1.1-2.5-2-5-2.9-7.6c-0.5-1.4-1.6-2-2.9-2.4c-2.2-0.7-4.4-1.4-6.5-2.4c-2.2-1-2.7-2.4-2.3-4.7c0.2-0.9,0.5-1.8,0.8-2.7
		c0.4-1.3,0.9-2.5,1.1-3.8c0.6-2.7-0.6-4.9-2.8-6.2c-6.9-4.1-14.1-7.1-22.4-6.4c-1.3,0.1-2.6-0.1-3.9-0.2c-3.5-0.4-6.6,0.8-9.6,2.3
		c-4,2.1-8.1,4.4-12.2,6.3c-2,0.9-4.2,1.4-6.5,2.1c0.2-2,1-3.3,2.3-3.9c4.9-2.3,8.7-6.3,13.3-9.1c6-3.5,12.3-5.7,19.2-6.5
		c9.9-1,18.7,1.6,26.4,7.7c3.2,2.6,6.2,5.5,9.2,8.4c1.3,1.2,2.1,1.6,3,1.1c1-0.6,1.4-2.1,0.8-3.4c-0.4-0.9-0.9-1.9-1.6-2.6
		c-1.9-2-3.9-4-5.9-5.9c-1.1-1.1-2.4-1.9-3.6-2.9C369.5,337.6,369,337,368.3,336.2z"/>
	<path class="st0" d="M533.5,422.1c3.8,0.5,6.5-0.6,6.8-3.3c0.2-1.6-0.2-3.3-0.3-5c0-0.5,0.1-0.9,0.1-1.4c0.5,0.1,1.2-0.1,1.6,0.2
		c1.7,1.3,2.4,3.2,2.6,5.3c0.6,7.4-2.6,13.1-8.6,17.2c-2.6,1.8-5.5,3.3-8.3,4.7c-1.7,0.9-2.3,1.3-2,2.5c0.4,1.6,1.7,2.7,3.4,2.3
		c1.4-0.3,2.8-0.9,4.2-1.6c1-0.5,2-1.1,3.2-1c0.9,0,0.9,0.4,0.9,1c-0.2,2.6-1.3,4.7-3.7,5.8c-1.7,0.8-3.4,1.3-5.1,1.9
		c-0.9,0.3-1.8,0.7-2.6,1.2c-1.1,0.6-1.4,1.6-1.3,2.8c0.1,1.1,0.9,1.7,1.9,2c1.2,0.3,2.4,0.3,3.6,0.6c0.5,0.1,1.3,0.3,1.4,0.6
		c0.1,0.5,0,1.3-0.3,1.7c-0.6,0.7-1.4,1.2-2.1,1.7c-2.2,1.4-4.5,2.6-6.6,4c-1.9,1.3-1.8,2.2,0,3.6c0.6,0.4,1.2,0.9,1.9,1.3
		c1.8,1.3,1.7,3-0.3,4c-1.3,0.6-2.7,1-4.1,1.4c-5.7,1.6-11.4,2.8-17.3,3.4c-3.6,0.3-7.2,0.4-10.9,0.3c-1.9,0-2.6-1.2-2.1-3.1
		c0.7-2.6,1.6-5.2,2.3-7.9c0.6-2.2,0.9-4.5,1.4-6.8c0.5-2.2,1.8-3.9,3.4-5.5c1.9-1.7,3.6-3.6,5.4-5.5c2.8-2.8,6.1-4.3,10.1-3.9
		c2,0.2,3.1-1.1,2.8-3.3c-0.4-3.2,0.6-6,2.5-8.5c1.7-2.2,4.1-3.3,6.7-4.1c2.2-0.6,4.5-1.2,6.6-2.1c2.2-1,3-3.1,2-5.2
		c-0.4-0.9-1.4-1.6-2.2-2.3c-2.9-2.6-5.9-5-9.7-6.3c-1.5-0.5-3-0.8-4.5-1.1c-2-0.3-2.6-1.3-1.7-3.2c0.3-0.6,0.7-1.2,1.2-1.8
		c0.5-0.7,1.3-0.8,2.1-0.5c2.4,0.8,4.9,1.7,7.3,2.5c3.2,1,5.5,3,7.3,5.7C533.6,418.1,534,420,533.5,422.1z"/>
	<path class="st0" d="M521.6,309.7c1.9-0.1,3.8-0.3,5.7-0.4c5-0.3,9.4,1.6,13.4,4.3c2,1.3,4,2.6,5.3,4.7c0.6,0.9,0.4,1.5-0.7,1.5
		c-0.5,0-1.1-0.2-1.6-0.4c-3.2-0.9-6.3-2.2-9.6-2.8c-4.1-0.8-7.7,0.6-10.8,3.3c-1.6,1.4-1.9,3.5-0.7,5.5c1.1,1.9,2.6,3.7,4,5.5
		c2.4,3.1,2.3,4-1,6.1c-1.7,1.1-3.4,2.2-5,3.5c-2.1,1.8-3.1,4.3-3.4,7.1c-0.2,2.3-0.1,4.7,0.1,7c0.2,2.5-0.6,3.4-3.1,3
		c-5.3-0.7-10.3-2.2-15.3-3.9c-1.2-0.4-2.4-0.8-3.6-1.3c-1.8-0.7-2.4-1.4-2.3-3.3c0.3-4.4-1.2-8.5-2.8-12.5c-1-2.6-0.8-5,0.6-7.3
		c2.8-4.7,6.6-8.6,11.1-11.5c4.2-2.7,8.5-5.3,12.9-7.5c2-1,4.5-0.9,6.7-1.2C521.6,309.3,521.6,309.5,521.6,309.7z"/>
	<path class="st0" d="M490.3,498.4c0.4,0,0.9-0.1,1.3,0c0.4,0.2,1,0.7,1,1c0,2.1-0.7,4.1-2.5,5.3c-1.6,1.1-2.4,2.2-2.5,4.1
		c-0.5,5-2.7,9.5-5.7,13.5c-2.8,3.8-5.8,7.4-8.7,11.1c-1.7,2.1-3.3,4.3-4.9,6.5c-1.9,2.5-4.5,3.5-7.6,3.6c-1.6,0.1-3.2,0.5-4.8,0.7
		c-0.4,0-1.1-0.2-1.2-0.5c-0.3-0.5-0.3-1.2-0.3-1.8c0.2-2.8-0.4-5.4-1.8-7.7c-3.6-5.7-5.1-12.1-6.6-18.6c-0.4-1.6-0.7-3.2-1-4.8
		c-0.3-1.8,0.2-2.6,1.9-3.2c8.9-2.7,17.8-5.6,26.9-7.3c5.5-1,11-1.6,16.6-2.3C490.3,498.2,490.3,498.3,490.3,498.4z"/>
	<path class="st0" d="M406.7,292.8c0.6,2.4,1.2,4.9,1.6,7.3c0.7,3.8,1.4,7.5,1.8,11.3c0.7,5.3,1.1,10.7,1.7,16.1
		c0.5,4.7,1,9.4,1.5,14c0.2,1.6,0.5,3.1,0.6,4.7c0.1,1.9,0.1,3.7,0.2,5.6c0,0.9,0.2,1.9,0.4,2.8c0.2,0.9,0,1.5-0.8,2
		s-1.4,1.2-2.1,1.8c-1,0.9-2,1.4-3.4,0.8s-2.2-1.7-2.1-3.2c0-1.3,0-2.6,0.5-3.8c0.9-2.1,0.5-4.2,0.4-6.2c-0.5-6.8-0.8-13.5-1.4-20.3
		c-0.3-3.3-1-6.5-1.7-9.7c-1.8-8.2-3.5-16.4-5.5-24.6c-0.8-3.5-2.1-6.8-3.3-10.2c-1.9-5.5-3.7-11-5.9-16.4c-2.3-5.9-5-11.7-7.4-17.6
		c-0.6-1.5-1-3-1.6-4.5c-0.5-1-1-2.2-1.7-2.9c-1.8-1.8-2.2-3.7-1.5-6c0.5-1.5,1-2.9,1.6-4.4c0.1-0.3,0.4-0.7,0.6-0.7
		c0.3,0,0.7,0.3,0.9,0.6c0.5,1.1,0.9,2.3,1.5,3.4c1.8,3.4,3.4,7,5.4,10.3c4.6,7.7,8,15.8,10.6,24.4c1.8,5.8,4.1,11.3,7.2,16.5
		c1.6,2.7,2,5.8,2.4,8.9C407,292.7,406.8,292.8,406.7,292.8z"/>
	<path class="st0" d="M457.8,328.3c0.5,0.9,1.1,1.6,1.3,2.4c1.2,4.4,2.3,8.8,3.4,13.3c0.4,1.9,0.6,3.9,0.6,5.9
		c0.1,3.3-0.2,6.6-1.8,9.5c-3,5.3-5.9,10.6-9.4,15.5c-2.1,3-5.1,5.3-7.8,7.9c-1.2,1.1-2.8,1.4-4.5,1.4c-1.3,0-2.6,0.5-4,0.7
		c-0.6,0.1-1.2,0.4-1.8,0.5c-0.4,0.1-0.9,0-1.4,0c0.1-0.5,0-1.1,0.3-1.6c0.6-1,1.3-1.9,1.9-2.9c3.9-6.4,7.5-13,9.5-20.3
		c1.7-6.1,1.1-12.1-1.9-17.7c-0.4-0.7-0.6-1.6-0.7-2.5c-0.2-1.1,0.3-2,1.3-2.5c1.6-0.8,3.1-1.6,4.7-2.2c3.1-1.2,6-2.8,8.5-5
		C456.6,330.1,457,329.3,457.8,328.3z"/>
	<path class="st0" d="M455.5,421.2c-0.3-3.4,2.3-5.1,4.8-5.3c5.4-0.4,10.5-2.1,15.8-2.8c3.1-0.4,6.2-0.4,9.3-0.3
		c1.7,0,2.4,1.1,2.1,2.8c-1.2,5.9-3.5,11.4-7.4,16c-4.1,4.9-8.5,9.4-12.8,14.1c-0.9,1-1.8,0.8-2.8-0.4c-3.3-4.3-5.9-9-7.3-14.3
		c-0.9-3.2-1.4-6.4-2-9.7C455.3,421.3,455.4,421.3,455.5,421.2z"/>
	<path class="st0" d="M371,212.2c-1.4,0.1-2.9,0.2-4.3,0.4c-1,0.1-1.6,0.9-1.4,1.9c0.3,1.4,0.5,2.9,1.1,4.3
		c1.7,4.1,1.5,8.2-0.1,12.2c-0.7,1.7-1.3,3.4-2,5.1c-0.4,0.9-0.8,1.7-1.9,1.7s-1.5-0.8-1.8-1.6c-2.1-5.3-5.7-9.6-9-14.1
		c-0.8-1.1-1.5-2.3-1.9-3.6c-0.9-2.6,0.1-4.7,2.4-6.2c2.2-1.4,4.7-1.8,7.2-2.1c3.3-0.4,4.3-1.2,5.1-4.4c0.5-2.2,1.8-3.2,4.2-3.6
		c3.5-0.5,6.8-0.3,10.1,1c1.6,0.6,3.4,0.9,5.2,1.4c0.5,0.1,1.2,0.3,1.3,0.6c0.1,0.5-0.1,1.1-0.5,1.5c-3.4,3.9-7.7,6.1-13,5.6
		C371.5,212.3,371.2,212.3,371,212.2C371,212.2,371,212.2,371,212.2z"/>
	<path class="st0" d="M330,412.8c-0.5,0.4-1,1.1-1.7,1.4c-3.4,1.7-6.8,3.4-10.2,5c-0.8,0.4-1.8,0.6-2.7,0.8c-1.2,0.2-2-0.4-2.2-1.5
		c-0.3-1.4-0.6-2.7-0.6-4.1c0-5.7,0-11.5,0.1-17.2c0.1-2.2,2-3.3,4.1-2.6c0.8,0.3,1.1,0.8,0.8,1.6c-0.2,0.8-0.5,1.7-0.7,2.5
		c-0.3,0.9,0,1.7,0.8,2.1c0.9,0.4,1.8,0.6,2.5-0.2c0.5-0.5,0.8-1.2,1.1-1.8c1.5-3.3,3.7-4.3,6.8-2.4c3.4,2.1,7,2.7,10.8,2.9
		c2.9,0.1,5.8,0.7,8.6,1.1c1.2,0.2,1.9,0.9,2,2.1c0.2,2-0.2,3.7-2,5.1c-3.4,2.5-7,2.8-11,1.7c-4.6-1.4-9.2-2.7-13.8-4
		c-0.3-0.1-0.7-0.1-1.1-0.2c-1-0.2-1.3,0.3-1.3,1.2c0,1.8,1.2,3,2.6,3.8C325.2,410.9,327.5,411.7,330,412.8z"/>
	<path class="st0" d="M340.1,453.8c1.7,0.5,3,0.9,4.3,1.2c3.1,0.7,5.3-0.1,6.7-3c0.9-2,1.6-4.3,2-6.5c0.9-4.8,3-5.3,7-4.9
		c2.2,0.2,3.2,1.4,3.7,3.5c2,8,4.9,15.7,8.7,23.1c0.2,0.5,0.3,1.3,0,1.7c-0.2,0.3-1.1,0.6-1.5,0.5c-10.5-2.1-20.8-5.1-30.5-9.8
		c-2-1-2.6-2.7-1.7-4.6C339,454.5,339.7,454.1,340.1,453.8z"/>
	<path class="st0" d="M486.9,448.7c0-0.1,0-0.3,0.1-0.5c1-2.3,0.7-4.6,0.2-7c-1.3-6,1.9-10.8,6.5-13.4c3.1-1.7,6.5-2.8,10-3.3
		c1.5-0.2,3.1,0,4.6,0.1c1.7,0.2,2.8,1.2,3.2,2.8c0.3,1.4,0.6,2.7,0.7,4.1c0.1,1.6-0.5,3-1.8,4c-2.9,2-5.2,4.7-7.5,7.3
		c-2.4,2.8-5.3,4.7-8.7,6c-1.4,0.5-2.8,1.3-4.2,2C488.3,451.6,486.9,450.8,486.9,448.7z"/>
	<path class="st0" d="M502,310.7c-0.2,0.3-0.4,0.9-0.8,1.3c-0.3,0.4-0.7,0.6-1.2,0.8c-3.4,1.7-5.8,4.5-8.1,7.5
		c-1.4,1.8-3,3.4-4.5,5.1c-0.5,0.5-0.9,1.1-1.3,1.7s-1,0.6-1.3,0c-1.1-2.1-3.1-3.2-5-4.3c-3.6-2.1-6.4-5.1-9.1-8.2
		c-0.7-0.8-0.6-1.5,0.1-2.2c1.8-2,4-3.1,6.5-3.5c5.1-0.8,10.3-1.5,15.5-2.2c0.2,0,0.5-0.1,0.7-0.1c2.1,0.5,4.2,1,6.2,1.5
		C501,308.4,501.8,309.2,502,310.7z"/>
	<path class="st0" d="M436.5,538c-0.2,2.4-1.1,3.4-3.3,4.1c-1.7,0.5-3.3,1.5-4.9,2.2c-1.3,0.6-2.7,1.1-3.9,1.7
		c-1.3,0.7-2.5,1.5-3.8,2.3c-0.3,0.2-0.6,0.5-1,0.7c-2.3,1.8-4,1.6-6.1-1c-1.2-1.5-2.1-3.2-3.2-4.8c-0.5-0.7-1.2-1.4-1.9-2
		c-1.2-1-1.2-2.3,0-3.3c2.9-2.4,6.4-3.7,9.8-5.1c2.7-1.1,5.4-2.4,8.1-3.6c0.3-0.1,0.7-0.3,1-0.2c3.5,1.2,6.7,2.9,8.4,6.4
		C436.1,536.3,436.3,537.2,436.5,538z"/>
	<path class="st0" d="M423.7,372.9c1.5,0.3,3,0.6,4.5,1.1c2.4,0.8,2.8,3,1.1,4.9c-1.4,1.5-2.7,3.1-4,4.8c-1.5,2-3.3,3.4-6,3.3
		c-0.3,0-0.6,0.1-0.9,0.2c-0.8,0.3-1.6,0.8-2.3-0.1c-0.6-0.8-0.7-2.3-0.1-3.1c0.4-0.5,1-1,1.6-1.2c3.8-1.4,4.3-2.3,3-6.1
		C419.8,374,420.6,373.1,423.7,372.9z"/>
	<path class="st0" d="M330.7,239.5c0.8-1.4,1.2-2.7,2-3.7c2.3-3.2,4.8-6.3,7.2-9.4c1-1.4,2.1-2.7,3.2-4c0.8-1,1.3-0.9,1.8,0.3
		c0.4,1.1,0.8,2.3,1.1,3.4c0.5,2.3-0.3,3.7-2.3,5c-1.7,1.1-3.4,2.4-4.8,3.8c-2.1,2.1-4.1,4-7.1,4.5
		C331.5,239.4,331.3,239.4,330.7,239.5z"/>
	<path class="st0" d="M535.3,410.8c-0.8-0.3-1.4-0.6-2-0.9c-4.7-2.5-9.5-4.8-14.7-6.2c-1.3-0.3-2.6-0.6-3.8-0.8
		c-1.3-0.3-1.5-0.7-1.1-1.8c0.6-2.1,1.6-2.6,3.7-1.9c6.2,2.1,12.2,4.9,17.8,8.3c0.4,0.2,0.8,0.5,1,0.8c0.3,0.5,0.9,1.3,0.7,1.6
		C536.6,410.3,535.8,410.5,535.3,410.8z"/>
	<path class="st0" d="M463.4,368c-0.1,1-0.1,1.9-0.3,2.8c-0.1,0.6-0.5,1.2-0.9,1.6c-0.8,1-1.7,1.9-2.7,2.7c-0.9,0.7-1,1.6-0.9,2.7
		s0.1,2.2-0.1,3.2c-0.4,2.1-1.7,3.5-3.8,4.1c-1.4,0.4-2.9,0.5-4.4,0.8c-0.1-0.1-0.2-0.2-0.2-0.3c0.6-0.9,1.2-1.8,1.8-2.7
		c3-4.4,6.1-8.8,9.1-13.2C461.6,368.9,462.2,368,463.4,368z"/>
	<path class="st0" d="M482.2,494.8c-0.8,0-1.3-0.5-1-1.7s0.6-2.3,1-3.4c0.4-1.2,1.3-1.7,2.4-1.2c1.5,0.7,2.9,0.7,4.5,0.6
		c1.4-0.1,2,0.6,1.8,2.1c-0.3,1.8-0.9,2.6-2.8,3C486.3,494.4,484.5,494.6,482.2,494.8z"/>
	<path class="st0" d="M445.6,415.8c-0.8,0-1.6,0.1-2.4,0c-1.3-0.1-1.8-0.8-1.4-2.1c0.4-1.2,1-2.3,1.6-3.4c0.5-0.8,1.2-0.9,2.1-0.4
		c1.4,0.7,2.8,1.2,4.3,1.8c0.8,0.3,1.7,0.5,1.8,1.5c0.1,1.1-0.8,1.8-1.7,2c-1.4,0.4-2.9,0.5-4.3,0.8
		C445.6,416,445.6,415.9,445.6,415.8z"/>
	<path class="st0" d="M365.9,383.6c-2.4-0.1-5.8-3.1-6.2-5.5c-0.1-0.8,0.2-1.3,1-1.4c0.9-0.1,1.8-0.4,2.6-0.6c0.8-0.2,2,0.4,2.4,1.2
		c0.2,0.5,0.3,1.1,0.4,1.6c0.2,0.9,0.4,1.8,0.8,2.7C367.4,382.6,366.9,383.6,365.9,383.6z"/>
	<path class="st0" d="M412.7,366.3c-0.4,1.5-1.3,2.9-2.7,4c-2.1,1.7-2.6,1.4-3-1.1c-0.1-0.8-0.3-1.6-0.4-2.3
		c-0.2-1.3,0.1-1.9,1.4-2.2c1-0.3,2-0.5,3-0.8S412.7,364.6,412.7,366.3z"/>
	<path class="st0" d="M507.8,418.4c1.9-1.4,4.8-1.2,6.5,0.4c0.3,0.3,0.6,0.8,0.5,1c-0.1,0.3-0.6,0.6-1,0.6
		C511.5,420.7,509.6,420.1,507.8,418.4z"/>
	<path class="st0" d="M352.3,626.2c-0.1-5.5,1-11,1.8-16.4c0.2-1.2,0.4-2.4,0.6-3.7c0.3-1.6,1-2.1,2.5-1.6c5,1.6,9.8,3.8,13.8,7.2
		c2.4,2,4.7,4.3,6.8,6.5c2.4,2.5,2.2,5.4-0.4,7.9c-1.9,1.9-4,3.6-5.9,5.5c-1.8,1.8-3.4,4-5.3,5.7c-2.3,2-4.8,3.8-7.3,5.6
		c-1.7,1.2-2.8,0.8-3.6-1.1C353.6,638.2,352.1,632.4,352.3,626.2z M358.3,631.8c0.9,0,2.1-0.9,2.1-1.8c0-0.8-1.1-2.2-1.7-2.2
		c-0.9,0-2.2,1-2.2,1.9C356.4,630.6,357.5,631.8,358.3,631.8z"/>
	<path d="M314,207.4c-38,0.1-69.2-31.1-69.2-69.2c0-37.6,30.4-69.3,69.2-69.3c38.4,0,69.4,31,69.2,69.6
		C383,176.9,351.6,207.4,314,207.4z M351.5,139.8c-0.2-2.4-0.3-4.8-0.6-7.1c-1.4-9.5-6.1-17-13.6-22.7c-8.6-6.7-18.5-9.3-29.3-7.8
		c-9.6,1.3-17.6,5.7-23.8,13.2c-7.4,8.9-10.2,19.1-8.5,30.6c1.5,9.7,6.1,17.7,13.7,23.8c9.7,7.7,20.7,10.1,32.8,7.4
		c11.2-2.6,19.7-9,25.2-19.1C350.4,152.3,351.6,146.2,351.5,139.8z M370.1,119.4c0.1,0,0.2,0,0.3-0.1c-0.5-1.9-0.8-3.9-1.5-5.7
		c-1.2-3.2-2.2-6.4-3.9-9.4c-4.5-8.1-11.2-14.4-18.9-19.5c-4-2.6-8.3-4.3-13.3-3.7c-2.4,0.3-3.8,1-4.4,2.9c-0.8,2.7-0.5,5.3,1.1,7.7
		c1.1,1.8,2.8,3,4.6,3.9c9.9,5.4,19,11.9,26.6,20.3c1.7,1.8,3.3,3.7,5,5.5c0.8,0.8,1.8,1.3,3,0.8C370,121.5,370.2,120.5,370.1,119.4
		z M366.9,140.6c0,1.3,0,2.6,0,3.8c0,2.5,2.7,4.7,5.2,4.2c0.5-0.1,1.1-0.5,1.4-1c1-1.4,1.3-3,1-4.7c-0.4-2.1-0.9-4.2-1.4-6.3
		c-0.7-2.7-2.8-3.2-5-2.1c-0.5,0.3-1.1,1.1-1.1,1.7C366.8,137.7,366.9,139.1,366.9,140.6z"/>
	<path d="M358.3,631.8c-0.8,0-1.9-1.2-1.8-2.1c0-0.8,1.3-1.9,2.2-1.9c0.7,0,1.8,1.3,1.7,2.2C360.4,630.9,359.3,631.8,358.3,631.8z"
		/>
	<path class="st0" d="M351.5,139.8c0.1,6.4-1.1,12.4-4.1,18c-5.5,10.2-14,16.6-25.2,19.1c-12,2.8-23.1,0.3-32.8-7.4
		c-7.6-6.1-12.3-14.1-13.7-23.8c-1.7-11.4,1.1-21.7,8.5-30.6c6.2-7.4,14.2-11.8,23.8-13.2c10.9-1.5,20.7,1.1,29.3,7.8
		c7.4,5.8,12.2,13.3,13.6,22.7C351.2,135.1,351.3,137.5,351.5,139.8z M343.3,139.3c0-5.8-1.2-10.7-3.5-14.6
		c-4.2-7-10.5-11.2-18.3-13.4c-2.7-0.8-5.6-1.4-8.4-1.4c-2.7,0-5.4,0.7-8,1.4c-9.1,2.5-16,7.8-19.4,16.9c-2.2,5.8-2.5,11.7-1.5,17.8
		c1.4,8.4,5.5,15,12.9,19.3c7.3,4.3,15.2,5.3,23.5,3.7c6.7-1.3,12.3-4.8,16.4-10.3C341.4,152.8,343.2,146,343.3,139.3z"/>
	<path class="st0" d="M370.1,119.4c0.1,1.2-0.1,2.2-1.3,2.7c-1.2,0.5-2.2,0-3-0.8c-1.7-1.8-3.4-3.6-5-5.5
		c-7.6-8.4-16.7-14.9-26.6-20.3c-1.8-1-3.5-2.2-4.6-3.9c-1.5-2.4-1.9-5-1.1-7.7c0.6-1.9,2-2.6,4.4-2.9c5-0.6,9.3,1.1,13.3,3.7
		c7.7,5.1,14.3,11.4,18.9,19.5c1.6,2.9,2.7,6.2,3.9,9.4c0.7,1.8,1,3.8,1.5,5.7C370.3,119.3,370.2,119.3,370.1,119.4z"/>
	<path class="st0" d="M366.9,140.6c0-1.4-0.1-2.9,0.1-4.3c0.1-0.6,0.6-1.5,1.1-1.7c2.2-1,4.3-0.6,5,2.1c0.5,2.1,1,4.2,1.4,6.3
		c0.3,1.7,0,3.3-1,4.7c-0.3,0.4-0.9,0.8-1.4,1c-2.5,0.6-5.2-1.6-5.2-4.2C366.9,143.1,366.9,141.9,366.9,140.6z"/>
	<path d="M343.3,139.3c-0.1,6.7-1.9,13.4-6.4,19.4c-4.2,5.6-9.7,9-16.4,10.3c-8.2,1.6-16.1,0.6-23.5-3.7s-11.5-11-12.9-19.3
		c-1-6.1-0.7-12,1.5-17.8c3.4-9.1,10.3-14.4,19.4-16.9c2.6-0.7,5.3-1.4,8-1.4c2.8,0,5.7,0.6,8.4,1.4c7.7,2.2,14.1,6.3,18.3,13.4
		C342.1,128.7,343.3,133.5,343.3,139.3z M316.9,164.8C316.9,164.8,316.9,164.9,316.9,164.8c1.1,0.1,2.2,0.1,3.3,0
		c0.9,0,1.4-0.5,1.5-1.4c0.1-3.1,1.8-5.2,4.1-7.1c1.6-1.3,3.2-2.7,4.5-4.3c4.2-5.3,4.9-11.3,3.5-17.7c-0.5-2.2-0.5-4.2,0.4-6.3
		c0.3-0.7,0.4-1.8,0.1-2.5c-0.6-1.3-1.6-2.4-2.5-3.4c-0.3-0.3-1.1-0.4-1.7-0.3c-1.5,0.1-3.1,0.5-4.6,0.3c-1.7-0.2-3.4-0.8-5.1-1.3
		c-5.1-1.6-10-1.1-14.6,1.4c-2.1,1.2-3.9,2.8-5.7,4.3c-1.5,1.2-2.9,2.6-4.9,2.5c-3.2-0.1-5.4,3.3-5.7,5.7c-0.1,1.2,0.3,2.1,1.1,3
		c1.3,1.3,2.4,2.8,3.4,4.4c0.7,1.1,1,2.3,1.4,3.5c2.4,6.4,6.6,11,13.2,13.3c2,0.7,3.3,1.8,3.4,4.1c0.1,1.3,0.8,1.9,2.2,1.9
		C315.2,164.8,316,164.8,316.9,164.8z"/>
</g>
</svg>
